<?xml version="1.0" encoding="utf-8"?>
<!-- Generator: Adobe Illustrator 26.3.1, SVG Export Plug-In . SVG Version: 6.00 Build 0)  -->
<svg version="1.1" id="Layer_1" xmlns="http://www.w3.org/2000/svg" xmlns:xlink="http://www.w3.org/1999/xlink" x="0px" y="0px"
	 viewBox="0 0 1000 1000" style="enable-background:new 0 0 1000 1000;" xml:space="preserve">
<style type="text/css">
	.st0{fill:#007B7D;}
</style>
<g>
	<path d="M839.27,561.98c-0.27-2.26,0.92-4.44,2.83-6.01c2.74-2.25,4.86-5.18,4.57-8.64c-0.41-4.64-0.74-9.39-3.11-13.69
		c-2.65-4.83-5.57-9.47-8.89-13.86c-0.41-0.55-0.78-1.4-1.67-0.98c-0.81,0.39-0.9,1.06-0.73,2c0.33,1.78,0.77,3.5,1.33,5.2
		c0.27,0.81,0.7,1.61,0.54,2.5c-0.12,0.64,0.36,1.53-0.67,1.82c-1.04,0.29-1.66-0.54-1.77-1.18c-0.54-3.66-4.01-4.4-6.19-6.42
		c-0.95-0.87-2.07-1.54-2.63-2.77c-0.99-2.17-0.9-4.26,0.44-6.33c3.93-6.03,6.05-12.63,5.77-19.9c-0.02-0.71,0.01-1.51-0.3-2.12
		c-1.51-2.92-0.12-5.27,1.25-7.75c2.77-4.98,3.79-10.35,2.53-15.94c-0.54-2.42-2.42-4.22-4.44-5.59c-2.34-1.59-5.18-2.49-6.38-5.44
		c-0.21-0.51-0.81-1.18-1.53-0.95c-0.7,0.23-0.28,1.01-0.37,1.53c-0.29,1.53-0.54,3.1-0.87,4.63c-0.18,0.9-0.62,1.26-1.49,0.51
		c-2-1.74-3.61-3.53-3.16-6.6c0.33-2.26,0.64-4.84-0.11-6.86c-0.96-2.6-1.53-5.33-2.7-7.87c-0.99-2.16-2.16-4.19-3.37-6.22
		c-2.66-4.49-4.42-9.25-4.57-14.56c-0.06-1.99-0.49-3.94-1.38-5.96c-1.5,1.36-1.03,3.1-1.29,4.5c-0.78,4.14-3.18,7.67-4.15,11.72
		c-0.23,0.97-1.09,1.92-2.48,1.53c-2.88-0.81-6.56-5.38-6.71-8.43c-0.04-0.64-0.2-1.24-0.37-1.87c-0.22-0.8-0.55-1.36-1.45-1.24
		c-0.8,0.09-0.96,0.7-1.03,1.41c-0.23,2.42-0.47,4.85-0.83,7.27c-0.52,3.36-1.12,6.71-4.58,8.52c-0.75,0.39-1.19,1.11-1.45,1.8
		c-2.06,5.75-5.65,10.93-6.43,17.15c-0.19,1.53-0.23,2.95,0.56,4.39c1.53,2.83,3.12,5.67,4.37,8.6c1.52,3.53,2.16,7.43,1.01,11.33
		c-0.32,1.06-0.89,1.92-1.98,2.4c-2.25,1.01-4.68,1.3-7,1.94c-1.12,0.3-1.41-0.9-1.57-1.68c-0.27-1.47-0.37-2.99-0.46-4.49
		c-0.05-0.76-0.04-1.49-0.95-1.68c-0.81-0.16-1.24,0.44-1.43,1.05c-1.13,3.74-3.58,6.85-4.99,10.44c-0.96,2.46-0.49,4.82,1.33,6.75
		c1.47,1.58,2.99,3.1,4.19,4.91c2.93,4.49,2.26,7.03-1.46,10.19c-3.18,2.7-5.61,5.74-5.1,10.28c0.2,1.72-0.85,3.16-1.22,4.76
		c-0.23,1.04-1.22,0.88-1.96,0.91c-1.89,0.08-2.7,1.16-3.17,2.89c-1.02,3.77-1.74,7.54-1.53,11.46c0.13,2.67-0.56,5.15-1.85,7.43
		c-1.96,3.47-2.49,7.26-2.68,11.14c-0.08,1.78-0.2,3.57-0.22,5.34c-0.03,2.42,0.87,4.44,2.51,6.23c2.81,3.04,5.98,5.55,9.68,7.43
		c1.52,0.77,2.43,2.26,3.19,3.7c1.24,2.33,2.46,4.68,3.32,7.22c0.97,2.85,2.51,5.47,4.63,7.65c1.03,1.05,0.87,1.5-0.46,1.8
		c-2.44,0.56-4.89,1.15-7.33,1.7c-6.19,1.37-12.4,2.48-18.76,2.65c-5.37,0.16-10.75,0.87-16.08,0.64
		c-10.37-0.43-20.76-0.34-30.95-3.25c-6.33-1.82-12.72-3.39-19.01-5.38c-0.95-0.29-1.85-0.68-3.25-1.19
		c2.32-1.01,4.37-0.58,6.3-0.98c8.22-1.7,16.61-2.84,24.02-7.25c1.32-0.78,4.96-0.23,5.88,0.97c0.71,0.92,1.66,1.16,2.61,1.34
		c5.71,1.1,11.38,1.17,16.93-0.81c1.02-0.36,2.07-0.69,2.53-1.84c0.07-0.2,0.15-0.47,0.32-0.55c5.86-3.02,4.27-8.62,4.44-13.45
		c0.12-3.12-1.64-5.58-4.34-7.45c-4.12-2.84-8.36-4.93-13.55-4.62c-3.27,0.19-3.69-0.23-3.57-3.47c0.19-4.49-0.3-8.74-3.34-12.35
		c-0.27-0.3-0.49-0.77-0.52-1.17c-0.18-5.78-3.86-9.17-8.16-12.14c-1.06-0.74-2.21-1.36-3.3-2.03c-1.51-0.95-3.06-1.36-4.9-1.06
		c-2.39,0.37-4.78-0.07-7.23,0.78c-5.5,1.94-9.26,5.24-11.2,10.89c-1.5,4.32-3.52,8.47-6.58,12.02c-2.51,2.9-5.96,3.87-9.34,4.43
		c-8.34,1.4-16.84,1.49-25.19,3.02c-4,0.75-8.16,0.81-12.24,0.13c-1.12-0.19-1.95-0.9-2.68-1.7c-7.19-7.8-15.17-14.85-21.91-23.1
		c-1.89-2.32-4.19-4.33-6.4-6.38c-3.92-3.65-5.16-8.48-6.16-13.45c-1.46-7.17-5.22-12.62-11.89-15.93c-2.3-1.13-4.56-2.4-7.06-3.13
		c-0.75-0.22-1.29-0.51-1.15-1.66c1.3-9.61,2.97-19.14,6.7-28.14c3.47-8.41,6.78-16.97,12.45-24.21c3.68-4.72,6.97-9.83,11.83-13.6
		c2.96-2.28,4.72-3.09,7.53,1.27c2.77,4.35,5.29,8.81,6.89,13.75c0.91,2.79,1.67,5.58,1.31,8.59c-0.15,1.32,0.33,2.69,0.33,4.05
		c-0.05,9.8-0.96,19.55-0.94,29.35c0,4.4-1.79,8.68-2.81,12.98c-0.83,3.57-1.75,7.09-2.61,10.64c-0.16,0.62-0.25,1.29,0.46,1.73
		c0.74,0.48,1.41,0.15,2-0.27c2.48-1.72,4.65-3.74,6.47-6.2c6.08-8.21,10.16-17.45,13.44-27.02c2.58-7.55,4.98-15.25,6.65-23.04
		c1.47-6.84,3.15-13.66,4.07-20.6c0.2-1.5,0.85-1.88,2.36-2.06c7.11-0.76,12.91,2.79,18.93,5.57c3.03,1.39,6,2.96,8.96,4.56
		c3.23,1.74,7.06,1.02,10.61-0.4c6.05-2.41,12.2-4.55,17.69-8.21c1.86-1.25,3.15-2.92,4.6-4.49c1.05-1.13,2.26-1.63,3.65-2.07
		c7.96-2.48,15.04-6.49,20.17-13.17c2.97-3.86,4.4-8.5,4.55-13.42c0.21-6.6-0.81-13.06-2.2-19.46c-1.57-7.11-7.16-11.6-14.44-11.33
		c-3.53,0.13-6.51-0.51-9.54-2.41c-2.76-1.73-5.89-3.03-9.14-3.67c-4.09-0.82-7.93-2.55-12.01-3.34c-2.02-0.4-3.6-1.75-5.24-2.84
		c-1.38-0.91-1.6-2.7-1.06-4.13c1.95-5.1,0.15-9.04-3.39-12.65c-4.36-4.44-8.36-9.34-14.03-12.28c-2.34-1.22-4.79-2.23-7.24-3.2
		c-0.85-0.34-1.18-0.65-0.89-1.54c1.53-4.82,1.31-9.82,1.1-14.77c-0.11-2.54-1.15-5.03-1.4-7.57c-0.43-4.44-2.14-8.63-2.39-13.1
		c-0.08-1.67,0.26-3.29,0.42-4.91c1.18-11.59,2.57-23.15,2.22-34.85c-0.18-6.31-0.75-12.58-1.44-18.85
		c-0.26-2.33-0.79-4.67-1.54-6.9c-0.99-2.98-0.06-5.61,0.89-8.33c2.72-7.71,7.37-14.38,11.38-21.4c1.15-2,0.55-4.84-1.51-5.92
		c-3.66-1.92-6.89-4.72-11.1-5.59c-4.03-0.83-7.37,1.12-9.33,4.58c-4.71,8.37-6.42,17.84-10.06,26.62c-1.1,2.67-2.81,4.86-4.47,7.05
		c-4.28,5.66-7.62,11.88-11.52,17.79c-2.61,3.96-3.77,8.67-5.38,13.09c-1.96,5.4-5.07,10.26-7,15.66
		c-1.63,4.54-3.98,8.72-6.37,12.89c-2.12,3.66-5.89,5.53-8.89,8.23c-3.38,3.08-7.09,5.82-9.86,9.52c-1.59,2.09-3.94,3.32-5.86,5.04
		c-3.18,2.85-5.24,6.65-8.47,9.41c-2.37,2.03-4.67,3.24-8.07,1.79c-7.4-3.16-15.46-4.22-23.07-6.75c-3.75-1.23-7.66-1.92-11.48-2.62
		c-3.94-0.73-8.2-1.2-12.16,0.19c-2.93,1.01-4.86,5.68-3.92,8.64c0.34,1.02,0.91,2,1.04,3.04c0.62,5,4.12,6.72,8.38,7.95
		c6.2,1.77,12.38,3.58,18.43,5.79c4.43,1.63,8.6,3.89,12.9,5.88c0.44,0.2,0.91,0.39,1.39,0.55c3.46,1.11,3.65,1.2,2.14,4.46
		c-2.39,5.13-4.55,10.34-6.65,15.58c-1.98,4.91-4,9.89-3.98,15.24c0.04,7.43-1.96,14.48-3.38,21.63c-0.26,1.27-0.15,2.54-0.54,3.82
		c-1.63,5.41-5.51,9.04-9.43,12.77c-3.15,3.02-6.35,6.01-9.16,9.4c-1.78,2.15-3.92,3.99-5.98,5.91c-2.74,2.54-5.4,5.18-8.35,7.45
		c-4.22,3.29-7.81,7.18-11.55,10.93c-2.13,2.14-4.14,4.4-6.26,6.57c-1.4,1.44-2.85,1.49-4.44,0.57c-6.13-3.55-9.8-9.21-13.07-15.23
		c-3.26-6-4.28-12.59-5.16-19.21c-0.44-3.27-2.02-5.81-4.86-7.2c-5.19-2.54-9.64-6.26-14.7-8.97c-4.36-2.34-8.67-4.77-13.13-6.92
		c-4.28-2.06-8.22-4.7-12.45-6.81c-2.57-1.29-5.19-2.47-7.74-3.79c-8.24-4.32-16.49-8.61-24.69-13.02
		c-2.23-1.22-3.75-3.19-4.91-5.53c-4.14-8.36-7.65-17-11-25.69c-2.99-7.74-5.46-15.65-7.71-23.64c-3.13-11.17-4.95-22.67-9.12-33.57
		c-1.67-4.36-2.23-9.17-3.23-13.79c-0.43-1.96-1.13-3.84-1.36-5.86c-0.43-3.71,0.9-6.9,2.21-10.17c2.12-5.25,3.87-10.66,6.22-15.81
		c2.85-6.22,6.77-11.83,11.51-16.79c2.69-2.83,2.83-10.92-0.47-13.49c-2.77-2.16-4.51-5.66-8.45-6.31c-1.84-0.3-3.63-0.89-5.46-1.15
		c-5.27-0.74-10.77,2.75-12.36,7.79c-1.23,3.86-3.53,7.18-5.2,10.84c-1.79,3.89-3.61,7.79-4.97,11.85
		c-1.64,4.91-4.61,9.03-7.34,13.32c-1.26,1.96-2.12,4.29-4.61,5.17c-2.02,0.71-4.07,1.39-6.09,2.12c-5.3,1.92-10.66,3.53-15.7,6.26
		c-3.41,1.85-7.13,3.31-10.64,5.09c-5.88,2.98-11.74,6.12-17.05,10c-3.89,2.85-7.67,5.92-11.11,9.46
		c-7.18,7.41-14.36,14.83-22.24,21.6c-5.98,5.13-12.44,9.18-19.27,12.82c-2.42,1.29-5.24,1.61-7.52,3.19
		c-4.97,3.44-10.76,5.38-15.9,8.5c-0.19,0.11-0.37,0.26-0.57,0.29c-6.17,1.3-8.1,6.4-10.42,11.32c-2.83,5.98-5.54,11.99-7.5,18.29
		c-2.13,6.92-4.91,13.62-6.76,20.62c-2.6,9.78-4.77,19.62-6.44,29.59c-0.75,4.47-1.58,8.91-2.5,13.32
		c-0.33,1.51,0.44,2.82,0.39,4.23c-0.09,2.08-0.29,4.16-0.47,6.24c-0.3,3.64-0.62,7.29-0.94,10.93c-0.02,0.3-0.12,0.54-0.44,0.62
		v22.95c0.58,0.16,0.44,0.65,0.48,1.06c0.43,4.79,1.05,9.59,1.2,14.38c0.12,3.22,1.23,6.19,1.53,9.34
		c0.47,5.13,1.31,10.22,2.42,15.27c0.95,4.27,1.86,8.54,2.74,12.82c1.2,5.98,2.47,12.01,5.79,17.2c3.96,6.17,8.51,11.9,14.93,15.82
		c0.51,0.33,1.01,0.53,1.59,0.21c0.58-0.32,0.42-0.85,0.46-1.34c0.08-1.27-0.51-2.37-1.02-3.47c-1.23-2.68-2.36-5.4-3.84-7.95
		c-3.02-5.19-3.39-10.63-2.33-16.39c1.49-8.02,3.15-15.99,5.27-23.9c2.3-8.61,3.96-17.41,7.16-25.78
		c2.21-5.81,2.77-12.06,5.61-17.75c2.53-5.09,5.85-9.39,9.93-13.11c5.51-5.03,11.46-9.53,17.95-13.23
		c4.91-2.78,9.99-5.25,15.18-7.51c4.42-1.94,8.97-3.36,13.52-4.84c5.15-1.68,8.82-0.67,11.55,3.85c1.87,3.09,2.7,6.64,4.62,9.68
		c5.12,8.21,8.42,17.27,11.61,26.28c3.39,9.58,4.81,19.75,7.92,29.44c0.4,1.25,0.27,2.49-0.65,3.43c-1.41,1.43-2.81,3.01-4.49,4.02
		c-5.46,3.27-9.39,8.14-13.49,12.77c-4.02,4.54-6.71,10.01-9.87,15.13c-2.84,4.62-5.65,9.28-7.43,14.5
		c-1.27,3.74-2.06,7.59-3.38,11.32c-3.53,9.94-4.58,20.36-5.25,30.82c-0.49,7.55,0.12,15.12,1.08,22.55
		c1.08,8.28,2.79,16.5,5.75,24.45c2.56,6.9,5.51,13.55,9.66,19.56c4.23,6.1,8.93,11.87,13.46,17.77c1.7,2.22,3.47,4.43,5.73,6.08
		c4.48,3.25,8.83,6.68,12.79,10.49c5.7,5.51,12.48,9.4,18.98,13.75c5.34,3.59,11.46,5.57,17.1,8.56c1.53,0.81,1.64,1.74,1.15,2.86
		c-1.73,3.92-3.55,7.82-6.49,11.04c-2.35,2.6-4.82,5.1-7.13,7.73c-6.95,7.92-7.1,17.51-6.76,27.26c0.25,7.19,1.12,14.36,1.02,21.58
		c-0.02,0.85-0.29,1.65-0.23,2.55c0.26,3.58,0.58,7.16-0.16,10.72c-0.4,1.89-0.98,3.85-0.82,5.72c0.58,6.77,1.64,13.47,4.36,19.79
		c0.91,2.1,1.67,4.29,3.3,6.02c0.87,0.92,1.88,1.3,2.75,0.23c0.91-1.09,1.77-2.3,2.26-3.63c1.73-4.63,4.33-8.86,6.16-13.44
		c0.62-1.52,0.9-4.09,3.73-2.35c0.15,0.09,0.43,0.02,0.64,0c1.68-0.23,3.33,0.16,4.9,0.58c1.22,0.33,2.67,0.64,3.18,2.21
		c0.78,2.36,1.57,4.75,2.49,7.07c1.2,2.98,2.43,5.95,3.63,8.93c1.36,3.39,4.25,5.58,7.1,7.72h1.3c2.09-2.19,3.47-4.75,4.34-7.67
		c1.01-3.43,2.57-6.65,3.44-10.14c0.39-1.51,0.98-3.02,1.18-4.55c0.32-2.39,1.92-3.59,3.89-3.96c1.86-0.34,3.67,0.51,4.84,2.18
		c2.99,4.27,7.03,7.5,10.86,10.92c1.71,1.53,3.31,3.19,5.06,4.69c1.46,1.25,3.27,1.71,4.75,2.83c0.88,0.68,1.46,0.29,1.91-0.81
		c1.82-4.47,1.33-9.05,0.68-13.6c-0.95-6.55-2.55-12.9-5.85-18.75c-1.26-2.25-0.96-4.82,0.14-6.92c1.86-3.6,0.61-7.13,0-10.51
		c-1.15-6.29-1.11-12.4,0.76-18.49c0.21-0.69,0.57-1.24,1.29-1.63c6.56-3.51,11.88-8.55,16.99-13.82c0.46-0.46,0.87-0.97,1.19-1.51
		c1.82-3.03,2.58-3.52,6.01-2.7c9.9,2.34,19.94,3.09,30.08,3.6c7.02,0.34,14.01,0.04,20.93-0.39c7.67-0.47,15.39-1.3,23-2.98
		c7.89-1.75,15.46-4.49,22.87-7.45c7.15-2.85,14.1-6.33,20.85-10.15c4.37-2.48,8.74-4.93,12.83-7.83c0.81-0.58,1.18-0.29,1.84,0.21
		c2.85,2.2,4.82,5.2,7.23,7.82c0.48,0.54,0.89,1.13,1.36,1.67c1.02,1.19,3.04,2.07,2.91,3.53c-0.18,2.2-0.89,4.41-1.88,6.54
		c-1.56,3.31-3.91,6.01-6.08,8.83c-3.73,4.88-4.01,10.29-3.19,15.99c0.18,1.22,0.85,2.26,1.7,3.19c3.94,4.36,8.57,7.8,13.64,10.81
		c4.12,2.44,8.48,4.68,11.85,8.13c2.99,3.05,6.36,5.59,9.79,8.03c3.26,2.34,6.92,4.08,10.51,5.91c2.92,1.47,5.74,3.2,8.62,4.81
		c5.52,3.06,11.18,5.84,17,8.27c2.19,0.91,3.32,0.01,2.96-2.43c-0.56-3.72-2.19-7.07-3.85-10.34c0.32-0.5,0.65-0.4,0.98-0.21
		c6.03,3.38,12.88,4.14,19.4,5.89c2.2,0.6,4.47,0.97,6.69,1.49c1.19,0.29,2.33,0.33,3.26-0.54c1.05-0.98,0.28-2.12-0.11-3.01
		c-1.32-3.02-2.82-5.95-4.27-8.92c-0.43-0.87-0.91-1.72-1.57-2.94c2.69,0.39,4.95,0.68,7.18,1.05c3.37,0.55,6.77,0.37,10.15,0.26
		c2.77-0.09,3.81-2.27,2.33-4.51c-5.27-7.93-12.49-13.52-21.01-17.56c-0.49-0.25-1.05-0.25-1.46-0.81c-2.85-4-7.19-6.3-10.86-9.37
		c-3.93-3.27-6.82-7.32-9.72-11.41c-0.39-0.55-0.91-1.23-0.21-1.94c3.25-3.26,5.4-7.43,8.58-10.75c3.23-3.37,6.59-6.61,9.65-10.14
		c2.41-2.76,3.84-6.05,4.46-9.78c1.11-6.74-0.89-13-2.76-19.2c-1.96-6.57-2.81-13.31-4.21-19.97c-1.68-7.98-4.27-15.62-8.03-22.85
		c-3.43-6.55-7.45-12.73-12.04-18.55c-0.83-1.04-2.02-1.82-2.5-3.59c4.32,2.3,8.74,3.4,13.04,4.89c6.91,2.37,14.09,3.77,21.25,5.19
		c5.7,1.11,11.37,2.36,16.99,3.74c3.98,0.97,8.03,0.36,12.01,1.03c3.19,0.51,6.43,0.95,9.66,1.03c6.63,0.18,13.25,1.37,19.93,0.37
		c1.34-0.2,2.74-0.08,4.1-0.08c10.45-0.02,20.83-1.02,31.08-3.01c8.01-1.54,16.03-3.17,23.73-5.98c7.3-2.68,14.04-6.44,20.34-11.03
		c1.25-0.91,1.7-2.48,2.37-3.79c0.69-1.32,1.37-1.4,2.72-1.17c3.81,0.64,7.53,1.89,11.48,1.56c1.24-0.12,2.46-0.25,3.53-0.88
		c4.99-2.91,10.69-4.08,15.94-6.34c0.63-0.28,1.44-0.54,2.07-0.37c4.42,1.16,7.88-0.85,11-3.47c4.01-3.36,7.4-7.3,8.44-12.62
		c0.57-2.92-0.23-5.8-1.36-8.52C840.95,570.54,839.8,566.31,839.27,561.98z M272.65,405.7c0,0-7.95-0.5-19.94,2.18
		c-0.33,0.91-0.96,1.54-2.12,1.74c-5.83,0.98-11.1,3.47-16.36,6.02c-1.87,0.91-3.58,2.12-5.45,3.03c-4,1.96-8.2,3.44-11.93,6.01
		c-4.98,3.45-9.38,7.61-14.29,11.16c-3.67,2.64-6.86,5.68-8.79,9.9c-0.64,1.43-1.56,2.74-2.35,4.1c-0.13-1.38-0.25-2.76-0.3-4.13
		c-2.88,3.31-5.69,6.88-8.45,10.73c0,0,3.24-94.3,14.76-107.98s61.92-49.31,78.47-48.6L272.65,405.7z M326.99,789.47
		c-2.74,6.05-5.73,11.95-9.05,17.7c-0.23,0.41-0.3,1.12-0.88,1.11c-0.7,0-0.81-0.76-0.98-1.26c-2.09-5.69-3.88-11.46-3.73-18.57
		c-0.06-4.2,0.63-9.14,3.47-13.58c1.44-2.26,1.71-2.33,3.8-0.77c3.4,2.55,4.98,6.43,7.2,9.87
		C328.02,785.8,327.85,787.55,326.99,789.47z M698.68,585.42c-3.77,2.12-8,2.69-12.1,3.62c-1.11,0.26-1.02-0.5-0.69-1.15
		c1.59-3.09,3.12-6.16,1.01-10.15c4.25,2.02,8.21,3.08,11.71,5.22c0.54,0.32,1.41,0.42,1.4,1.16
		C699.99,584.8,699.23,585.11,698.68,585.42z M726.62,584.9c-3.51,1.46-7.09,1.65-10.78,1.2c-2.41-0.29-3.15-1.44-1.84-3.47
		c1.64-2.55,3.53-4.91,5.33-7.34c0.56-0.75,1.42-1.16,2.29-0.82c1.79,0.71,3.71,1.09,5.38,2.17c1.61,1.05,1.98,2.54,2.19,3.96
		C729.13,582.7,728.53,584.1,726.62,584.9z M713.76,565.46c0.42-1.23,1.22-1.82,2.51-2.02c3.75-0.61,7.31-0.07,10.71,1.61
		c5.08,2.5,7.29,7.3,4.96,12.13c-1.53-4.15-5.3-4.85-8.77-5.92c-3.1-0.96-5.51,0.28-7.3,2.81c-1.29,1.82-2.39,3.77-3.65,5.61
		c-2.32,3.37-6.35,3.8-9.3,0.98c1.29-0.3,3.05,1.16,3.75-0.94c1.05-3.15,1.92-6.42-0.33-9.37c-0.82-1.06-0.43-1.57,0.23-2.54
		c0.18,0.42,0.28,0.61,0.32,0.81c0.29,1.4,1.02,2.46,2.5,2.61c1.53,0.15,2.34-0.89,2.88-2.17
		C712.78,567.87,713.33,566.69,713.76,565.46z M709.39,546.95c1.65,2.68,2.27,5.58,2.06,8.21c0.02,3.51-0.33,6.5-0.84,9.48
		c-0.09,0.54-0.02,1.33-0.7,1.41c-0.69,0.09-0.78-0.73-1.04-1.2c-1.96-3.75-4.36-7.12-8.07-9.38c-2.83-1.72-3.73-3.59-3.18-6.65
		c0.39-2.17,3.58-5.22,5.82-5.55C705.24,542.99,708.08,544.81,709.39,546.95z M566.49,499.71c4.12,1.33,8.17,2.94,11.16,6.23
		c3.2,3.52,3.74,8.19,5.1,12.5c0.87,2.76,0.85,5.8,2.96,8.21c5.84,6.68,11.68,13.33,18.01,19.59c4.13,4.1,8.35,8.16,12.23,12.54
		c2.36,2.65,4.93,5.37,9.27,3.72c1.19-0.44,2.71-0.08,4.09-0.08c1.58,0,3.18,0.16,4.74-0.01c6.6-0.78,13.14-1.91,19.75-2.44
		c5.23-0.43,10.22-1.47,15.03-3.52c1.2-0.53,2.44-1.02,3.3-2c3.02-3.47,5.31-7.32,6.6-11.8c0.81-2.82,1.71-5.79,4-7.8
		c6.84-6.01,13.81-5.13,20.35,0.65c1.41,1.23,2.55,2.86,3.29,4.82c-8.31-1.3-13.59,5.44-12.13,13.42c0.13,0.7,1.41,1.26,0.46,2.02
		c-0.9,0.74-1.99,0.19-2.89-0.18c-2.01-0.81-3.94-1.77-4.7-4.12c-0.3-0.92-1.04-1.67-2.18-1.22c-1.05,0.41-0.94,1.32-0.68,2.21
		c0.36,1.24,0.7,2.49,1.11,3.72c0.25,0.72,0.39,1.19-0.44,1.79c-2.44,1.78-4.58,3.78-5.09,7.07c-0.42,2.89-0.89,2.94-3.68,2.53
		c-2.15-0.32-4.47-0.95-6.37,0.83c-0.58,0.54-1.2,1.25-0.89,2.08c0.41,1.01,1.37,0.51,2.09,0.4c4.99-0.8,9.54,1.32,11.75,5.65
		c1.45,2.83,1.65,5.84,0.42,8.78c-1.11,2.68-2.44,4.86-5.96,5.36c-4.97,0.67-5.61,0.3-4.55-4.64c0.01-0.07,0.03-0.14,0.05-0.21
		c0.89-4.49-0.87-8.37-4.71-10.76c-1.04-0.65-1.81-0.61-2.67,0.25c-1.15,1.19-2.23,2.51-3.58,3.46c-1.2,0.84-2.43,2.63-4.31,0.88
		c-1.05-0.99-0.94-2.18-0.64-3.33c1.05-4.15,2.88-7.83,6.69-10.2c0.53-0.34,0.89-0.84,0.65-1.46c-0.27-0.73-0.88-0.53-1.46-0.4
		c-2.26,0.5-4.14,1.64-5.77,3.26c-2.35,2.34-3.73,5.23-4.4,8.65c-1.41-1.74-2.98-1.37-4.41-1.01c-1.12,0.28-2.23,0.48-3.37,0.7
		c-2.88,0.55-5.82,0.64-8.62,1.84c-2.49,1.06-5.24,1.23-7.72-0.13c-1.38-0.76-2.62-0.76-4.12-0.65c-2.96,0.2-5.92,0.89-8.93-0.46
		c-1.55-0.68-2.86-1.34-4.03-2.61c-1.71-1.84-3.94-3.23-5.47-5.18c-2.15-2.7-4.3-5.38-6.63-7.94c-2.71-2.99-5.59-5.86-8.07-9.03
		c-2.89-3.74-5.72-7.51-8.98-10.97c-1.57-1.65-3.47-2.98-4.65-5.03c-0.5-0.85-1.37-1.46-2.47-1.6c-0.84-0.11-1.57-0.53-1.65-1.46
		c-0.2-1.96-1.63-2.71-3.18-3.3c-0.71-0.27-1.51-0.5-1.53-1.32c-0.11-2.58-1.77-4.64-2.2-7.17c-1.09-6.33-1.99-12.66-1.82-19.11
		C564.66,500.5,565.2,499.3,566.49,499.71z M635.94,583.51c-2.67,0.46-4.72,1.22-6.93,0.99
		C631.14,584.13,632.85,581.5,635.94,583.51z M596.47,575.57c-0.35,0.58-0.96,0.55-1.53,0.58c-1.44-0.04-2.64-0.64-3.79-1.43
		c-3.51-2.34-7.02-4.63-11.02-6.15c-1.53-0.57-3.37-1.58-3.85-3.25c-1.05-3.72-1.77-7.54-2.47-11.35c-0.22-1.15,0.69-1.7,1.61-0.97
		c1.18,0.92,2.92,1.39,3.22,3.26c0.09,0.6,0.64,1.22,1.17,1.04c1.05-0.35,1.39,0.46,2,0.87c3.71,2.42,5.67,6.54,9.07,9.31
		c2.11,1.7,3.46,4.33,5.12,6.55C596.34,574.46,596.87,574.92,596.47,575.57z M634.37,433.91c-1.63,7.95-3.19,15.92-5.03,23.82
		c-2.74,11.76-7.07,22.99-12.06,33.95c-1.72,3.78-3.36,7.66-6.84,11.06c0.29-2,1.53-2.96,1.99-4.3c1.89-5.58,3.65-11.2,5.92-16.68
		c2.46-5.94,3.5-12.33,5.02-18.55c2.42-9.93,4.16-20.03,6.19-30.06c0.42-2.13,1.01-2.47,3.75-2.08
		C635.38,431.36,634.58,432.88,634.37,433.91z M585.7,299.6c0.82-1.47,1.44-3.41,2.82-4.54c2.76-2.22,5.23-4.64,7.34-7.52
		c1.37-1.85,2.42-3.92,3.98-5.64c2.57-2.83,4.64-6.05,7.11-8.97c2.17-2.6,3.45-5.93,5.19-8.9c2.82-4.85,5.52-9.79,8.61-14.48
		c1.58-2.4,2.34-5.31,4.47-7.34c1.19-1.16,2.6-2.12,1.88-4.14c-0.15-0.42,0.2-0.83,0.65-0.99c0.61-0.21,0.83-0.56,0.51-1.15
		c-0.53-0.96-0.06-1.82,0.21-2.71c1.04-3.5,3.7-6.45,3.43-10.4c0-0.12,0.12-0.26,0.18-0.39c1.02-2.06,2.16-4.06,2.69-6.31
		c0.4-1.73,1.85-2.96,2.35-4.51c1.17-3.59,1.88-7.32,4.25-10.45c1.95-2.58,3.25-5.58,5.46-8.02c2.09-2.3,3.86-4.92,4.55-8.08
		c4,0.99,5.64,3.04,4.55,5.82c-0.7,1.82-1.61,3.55-2.39,5.33c-2.13,4.85-5.39,9.09-6.98,14.29c-1.45,4.72-2.96,9.45-4.43,14.17
		c-0.84,2.7,0.77,4.84,1.71,7.23c0.53-1.85,1.06-3.71,1.73-6.06c0.26,0.63,0.35,0.82,0.41,1.02c1.86,6,1.47,12.27,1.93,18.41
		c0.69,9.25-0.62,18.44-1.47,27.64c-0.23,2.5-0.16,5.12-0.89,7.47c-0.96,3.11-1.16,6.17-0.37,9.18c1.34,5.17,2.4,10.37,3.47,15.59
		c0.87,4.26,1.03,8.48,0.12,12.65c-1.13,5.22-0.69,4.92-6.08,3.43c-1.11-0.3-1.44-0.85-1.26-2.03c0.33-2.13,0.71-4.27,0.47-6.46
		c-0.84-7.46-2.27-14.8-3.8-22.15c-0.39-1.82-1.09-3.64-0.81-5.54c0.55-3.86,0.57-7.76,0.58-11.65c0.01-6.99,1.41-13.93,0.89-20.93
		c-0.26-3.27-0.09-6.61-1.4-9.78c-0.78-1.86-1.18-3.87,0.11-5.79c0.35-0.53,1.38-0.96,0.69-1.79c-0.61-0.75-1.59-0.63-2.44-0.48
		c-1.22,0.2-2.05,1.06-2.77,1.95c-2.12,2.65-4.21,5.31-6.21,8.03c-2.22,3.03-3.46,6.6-5.29,9.86c-4.37,7.88-8.85,15.73-12.02,24.17
		c-2.77,7.38-8.15,12.35-14,17.11c-3.02,2.46-6.48,4.29-9.26,7.07c-1.56,1.57-3.64,2.63-5.73,4.08
		C581.55,303.73,584.25,302.22,585.7,299.6z M637.32,310.88v1.08c-0.01,5.04-1.75,6.22-6.01,3.71c-4.82-2.85-9.83-5.18-15.3-6.3
		c-1.89-0.39-2.02-1.06-1.44-2.58c1.6-4.23,3.38-8.43,4.61-12.78c0.76-2.7,3.71-3.67,4.23-6.37c0.03-0.22,0.25-0.33,0.49-0.2
		c1.79,0.92,2.98-0.61,3.78-1.46c1.12-1.22,2.22-0.92,3.44-0.96c2.13-0.06,1.72,1.56,1.91,2.82c0.11,0.63,0.36,1.24,0.5,1.87
		C635.24,296.67,637.48,303.56,637.32,310.88z M563.14,313.11c1.1-0.82,2.26-1.54,2.21,0.83c-0.01,0.92,0.71,0.47,1.11,0.5
		c1.94,0.15,3.98-0.2,6,1.22c-3.93,1.32-7.28,0.51-10.54-1.31C562.08,313.59,562.71,313.44,563.14,313.11z M507.56,315.39
		c-0.64-1.99-0.82-4.09-0.65-6.21c0.19-2.62,1.13-3.65,3.71-3.86c5.88-0.48,11.4,1.57,17.04,2.57c2.13,0.39,4.33,1.41,6.54,2.03
		c10.66,2.97,21.26,6.23,31.83,9.55c2.33,0.73,4.62,1.52,7.2,0.89c3.77-0.94,7.6-1.63,11.41-2.4c3.03-0.62,6.21-0.71,9.09-1.88
		c4.67-1.87,9.51-3.09,14.47-3.13c7.1-0.06,13.88,1.8,20.01,5.44c5.33,3.17,10.4,6.74,15.59,10.12c0.94,0.61,1.86,1.5,3.16,0.98
		c1.23-0.49,0.77-1.78,0.97-3.16c2.01,2.16,4.44,0.88,6.56,1.88c6.34,2.98,10.98,7.73,15.16,13.2c2.9,3.82,3.54,7.75,2.08,12.2
		c-0.56,1.71-0.12,3.31,1.3,4.24c3.19,2.09,6.64,4.22,10.24,4.93c7.19,1.41,13.86,3.89,20.15,7.48c2.4,1.37,4.81,2.1,7.54,2.26
		c2.57,0.14,5.25-0.11,7.67,0.92c3.79,1.6,5.25,4.97,6.08,8.68c1.18,5.38,1.74,10.81,1.87,16.31c0.14,6.85-2.63,11.99-7.8,16.3
		c-3.26,2.71-6.91,4.35-10.76,5.88c-2.21,0.89-4.12,0.99-6.19-0.15c1.59-0.88,0.97-2.49,1.32-3.75c0.34-1.2,0.49-2.61,2.19-2.36
		c1.4,0.19,2.27-0.6,3.32-1.23c4.27-2.54,6.48-6.88,9.33-10.63c1.47-1.93-0.27-5.18-2.72-5.43c-1.18-0.12-2.01-0.63-2.44-1.79
		c-2.15-5.67-5.54-10.19-11.48-12.34c-1.31-0.48-2.49-1.53-4.01-0.4c-0.57,0.41-1.53-0.07-1.77-0.47c-1.26-2.23-3.4-1.32-4.76-0.91
		c-2.97,0.91-5.74-0.07-8.57-0.19c-1.87-0.07-2.39-2.03-1.26-3.55c1.53-2.08,3.75-3.08,6.07-3.92c0.61-0.22,1.05-0.46,1.05-1.16
		c-0.02-0.77-0.58-0.92-1.19-0.97c-2.36-0.2-4.58,0-6.52,1.63c-1.71,1.43-2.81,3.59-5.13,4.32c-0.47,0.15-0.87,0.63-0.76,1.2
		c0.4,2.08-0.81,3.59-1.82,5.15c-0.99,1.51-0.84,3.22,0.41,4.13c1.82,1.34,3.38,3.19,5.8,3.64c3.86,0.69,6.89,3.61,10.84,4.15
		c0.47,0.07,0.9,0.68,1.29,1.09c2.11,2.25,2.46,4.9,2.09,7.86c-0.16,1.3-0.19,2.51-1.47,3.09c-1.25,0.56-2.22-0.34-3.09-1.08
		c-1.09-0.94-2.21-1.81-3.41-2.62c-2.64-1.75-5.68-2.48-8.51-3.71c-5.95-2.55-11.93-5.02-18.57-5.25c-2.08-0.07-3.98-0.92-5.86-2.01
		c-2.71-1.56-5.81-2.41-8.76-3.34c-3.2-1.02-6.68-1.86-10.21-1.53c-0.9,0.08-1.75-0.21-2.14-1.15c-0.41-0.98,0.22-1.63,0.81-2.3
		c2.07-2.3,4.4-4.12,7.64-4.48c2.08-0.25,2.54-1.86,2.75-3.61c0.2-1.64-0.12-2.97-1.78-3.77c-1.46-0.7-2.5-1.86-3.31-3.3
		c-1.03-1.86-5.4-3.94-7.12-3.25c-2.56,1.01-5.16,0.69-7.71,0.58c-2.17-0.09-4.37-0.91-5.67-2.63c-0.75-0.99-1.26-2.07-2.55-2.56
		c3.59,0.14,7.09,0.47,10.59,0.65c4.24,0.22,8.44,0.95,12.63,1.54c2.29,0.33,3.66-0.82,3.1-3.04c-0.11-0.46-0.71-0.92-0.14-1.36
		c0.6-0.42,1.26-0.23,1.84,0.09c0.92,0.51,1.61,1.44,2.76,1.54c-0.12-0.34-0.19-0.63-0.2-0.89c1.13,1.03,2.3,1.99,3.87,2.46
		c0.79,0.25,0.94,1.19,1.18,1.95c0.28,0.85,0.58,2.2,1.68,1.68c0.76-0.35,1.04-1.91,0.37-2.7c-1.03-1.24-1.61-2.56-2.07-4.1
		c0-0.01-0.01-0.02-0.01-0.04c0.81-0.19,1.53-0.65,2.13-1.63c0.32-0.5,0.84-0.5,1.31-0.11c1.16,0.97,2.3,0.42,3.45-0.02
		c2.58-0.99,2.63-3.39,3.09-5.55c0.14-0.69,0.54-1.51-0.37-1.88c-0.89-0.35-1.23,0.54-1.66,1.06c-1.08,1.32-1.65,3.03-3.2,4.01
		c-1.45-3.79-2.96-4.44-8.3-4.01c-3.04,0.25-2.83,2.56-3.01,4.74c-0.52-0.29-0.84-0.44-1.13-0.65c-6.23-4.39-11.55-9.78-16.84-15.21
		c-2.79-2.88-5.73-5.43-10.07-5.78c-4.64-0.36-9.04,0.55-13.37,2.05c-0.77,0.26-1.24,0.82-1.09,1.65c0.18,0.88,0.94,0.71,1.58,0.71
		c0.84-0.01,1.68-0.01,2.55-0.01c-4.74,3.39-10.28,4.47-15.61,6.08c-0.62,0.18-1.11-0.13-1.65-0.3c-4.03-1.18-7.41-3.79-11.34-5.22
		c-3.72-1.33-7.38-2.91-11.16-4.06c-3.55-1.09-6.83-2.83-10.71-3.29C551.6,331.68,507.91,316.46,507.56,315.39z M681.5,413.42
		c-2.25,3.7-4.2,7.74-8.07,10.22c-1.38,0.87-1.92,0.61-2.09-0.88c-0.4-3.43-0.76-6.86-1.15-10.28c0.05-2.99,0.05-3.13,1.25-3.11
		c2.5,0.06,5.12-0.15,7.44,0.91C680.14,410.86,682.4,411.94,681.5,413.42z M626.64,349.64c-0.89,0.39-1.25,1.36-1.7,2.18
		c-1.01,1.87-1.2,3.99-1.77,5.99c-0.18,0.62-0.11,1.37-1.65,0.99c-1.75-0.22-4.05-0.43-6.31-0.82c-1.79-0.29-3.63,0.02-5.37-0.58
		c-1.37-0.48-2.46-1.23-1.6-2.85c2.3-4.43,5.22-8.45,8.68-12.07c0.78-0.82,1.78-1.47,2.89-0.8c2.51,1.5,5.3,2.55,7.06,5.17
		C627.71,348.06,628.58,348.79,626.64,349.64z M628.76,351.69c1.34-0.07,2.07,1.08,1.95,2.34c-0.11,1.38-0.66,2.74-2.39,2.81
		c-1.4,0.05-1.63-1.11-1.89-2.32C626.88,353.35,627.1,351.77,628.76,351.69z M537.22,417.82c56.03-30.63,107.31-6.77,122.31,1.67
		c0.98,0.12,1.98,0.21,2.96,0.25c3.65,0.16,4.57,0.92,5.47,4.33c0.11,0.42,0.25,0.83,0.4,1.24c0.94,2.75,2.85,3.51,5.38,2.01
		c2.08-1.24,4.09-2.63,6.13-3.96c0.43,1.94,1.46,3.67,0.95,5.95c-0.44,2.02,2.92,3.74,4.85,2.69c4.46-2.46,8.76-5.19,13.62-7.09
		c-0.09,0.84-0.56,1.2-0.94,1.65c-0.36,0.43-0.71,0.92-1.17,1.26c-6.15,4.54-13.11,7.45-20.23,10.07c-0.99,0.37-1.94,0.21-2.96-0.11
		c-6.01-1.87-11.66-4.58-17.19-7.53c-6.81-3.61-14.04-4.57-21.56-3.85c-8.55,0.83-16.59-1.16-24.64-3.68c-0.02,0-0.04,0-0.06-0.01
		c-5.04-1.57-10.28-1.94-15.55-1.05c-0.69,0.11-1.29,0.26-1.67,0.57c-0.46,0.36-0.64,0.94-0.36,1.91c0.23,0.81-0.21,1.39-0.7,1.94
		c-1.17,1.29-2.33,2.56-3.48,3.86c-3.85,4.28-7.6,8.61-10.38,13.76c-2.27,4.19-4.51,8.36-6.62,12.63c-1.82,3.68-4.16,7.13-5.3,11.11
		c-3.17,11.12-5.65,22.3-5.67,33.99c0,8.26,0.91,16.3,3.15,24.16c1.82,6.41,1.92,13.11,3.68,19.55c-1.56-4.58-5.47-7.39-8.1-11.14
		c-6.13-8.77-15.24-12.95-25.04-15.33c-5.8-1.4-11.86-2.48-18.13-1.71c-5.19,0.63-10.26,1.46-15.14,3.18
		c-6.37,2.23-12.29,5.45-17.3,9.95c-3.03,2.74-6.45,4.98-9.18,8.09c-5.24,5.99-9.62,12.64-14.84,18.63
		c-0.81,0.94-1.45,1.1-2.55,0.65c-3.58-1.39-6.9-3.26-10.26-5.12c-1.59-0.89-1.81-1.78-0.88-3.22c4.36-6.72,9.06-13.17,15.33-18.32
		c2.69-2.22,5.25-4.46,9.12-3.01c0.23,0.09,0.56,0,0.85-0.04c0.98-0.15,1.96-0.44,2-1.6c0.05-1.23-0.97-1.46-1.95-1.57
		c-1.06-0.12-2.16,0.02-3.48-0.75c2.12-1.3,1.7-3.36,2.03-5.12c0.16-0.84-0.42-1.6-1.22-1.85c-1.08-0.33-1.05,0.71-1.28,1.32
		c-0.54,1.51-1.06,2.97-2.36,4.05c-5.39,4.44-10.23,9.45-14.89,14.63c-2.98,3.31-5.17,7.26-8.28,10.52c-1.24,1.3-2.25,1.5-3.71,1.2
		c-1.26-0.26-2.53-0.65-3.84-0.26c-0.5,0.14-0.97,0.37-1.04,0.96c-0.07,0.69,0.5,0.78,0.99,0.9c1.33,0.33,2.56,0.92,3.79,1.57
		c7.25,3.87,14.36,8,22.11,10.86c2.34,0.88,4.68,1.79,7.32,1.16c1.57-0.37,1.71,0.71,1.2,1.84c-0.5,1.11-1.19,2.14-1.8,3.2
		c-0.68,1.15-0.12,1.4,0.94,1.32c0.68-0.05,1.27-0.3,1.74-0.78c1.57-1.6,3.19-3.17,3.86-5.39c1.01-3.45,2.34-6.75,3.67-10.08
		c2.19-5.48,6.55-8.1,11.55-9.54c6.78-1.94,12.24,1.54,17.25,5.72c0.9,0.75,1.65,1.72,1.92,2.83c0.26,1.11,0.8,2.85-0.94,3.01
		c-2.72,0.23-5.1,1.46-7.68,2.08c-3.22,0.77-5.6,2.7-6.13,6.2c-0.29,1.93-1.51,2.16-2.97,1.79c-1.27-0.34-2.3-1.12-3.1-2.25
		c-1.12-1.57-1.74-3.3-2.09-5.17c-0.12-0.55-0.18-1.23-0.98-1.17c-0.75,0.06-1.24,0.55-1.24,1.27c-0.01,1.37-0.52,2.71-0.15,4.09
		c0.35,1.3-0.09,2.23-1.23,2.92c-0.41,0.25-1.01,0.65-1.04,1.04c-0.43,4.26-5.36,5.94-5.75,10.43c-0.15,1.74,0.14,3.51-0.23,5.27
		c-0.4,1.85-1.05,2.57-2.75,1.89c-1.11-0.43-2.23-0.58-3.39-0.34c-0.48,0.09-1.03,0.23-1.19,0.8c-0.19,0.62,0.32,0.88,0.71,1.19
		c0.68,0.53,1.3,1.17,2.03,1.61c1.51,0.92,0.95,1.56-0.21,2.2c-2.13,1.17-3.95,2.81-5.13,4.85c-1.24,2.16-1.93,0.99-2.83-0.05
		c-0.33-0.37-0.65-0.83-0.76-1.3c-0.65-2.83-3.18-3.6-5.26-4.88c-0.53-0.33-1.47-0.26-1.51-0.97c-0.04-0.67,0.79-0.95,1.36-1.26
		c2.25-1.26,4.63-2.3,5.95-4.77c0.49-0.91,0.69-1.75-0.6-1.4c-2.25,0.61-2.79-1.12-3.69-2.32c-0.46-0.58-0.69-1.22-1.6-1.18
		c-1.31,0.07-2.32-0.65-3.33-1.38c-3.03-2.2-6.29-4.17-9.59-5.8c-4.08-2-8.65-2.98-12.92-4.72c-1.86-0.77-3.55-1.88-5.51-2.47
		c-4.09-1.23-5.83-4.39-5.1-8.63c0.22-1.29,1.5-2.55,0.92-3.68c-1.32-2.57-0.25-4.01,1.78-5.34c0.57-0.39,1.23-0.99,1.4-1.61
		c0.6-2.09,2.33-3.22,3.59-4.75c2.21-2.67,5.12-4.99,6.61-7.94c2.96-5.88,8.06-10.29,10.58-16.37c1.67-4.05,4.61-7.32,6.17-11.59
		c1.51-4.12,2.43-9.38,7.61-11.37c0.35-0.13,0.55-0.64,0.83-0.98c0.25-0.29,0.51-0.6,0.82-0.81
		C465.1,477.65,484.18,446.83,537.22,417.82z M507.79,591.47c0-2.89,4.24-6.93,7.1-6.88c2.46,0.05,5.87,2.72,6.6,5.19
		c1.18,3.92,0.34,6.97-2.48,8.76c-1.23,0.76-2.46,1.52-3.74,2.15c-3.18,1.56-6.59,2.05-10.15,2.03
		C508.04,599.31,507.77,595.36,507.79,591.47z M517.05,581.36c-0.35,0.55-0.88,0.18-1.34,0.08c-2.7-0.53-5.37,0.28-7.23,1.86
		c-2.48,2.1-4.57,4.84-3.94,8.61c0.16,1.02-0.41,1.46-1.41,1.36c-3.81-0.08-4.58-1.22-3.11-4.62c0.11-0.26,0.2-0.54,0.26-0.82
		c0.18-0.68,0.56-0.95,1.27-0.76c2.01,0.53,3.19-0.61,4.36-2.03c1.52-1.84,2.84-3.77,3.85-5.95c1.52-3.31,2.88-3.55,5.51-1.01
		c0.62,0.58,1.02,1.38,1.5,2.09C516.98,580.53,517.33,580.92,517.05,581.36z M505.17,580.65c-0.37,0.61-0.76,1.23-1.53,1.43
		c-2.55-4.5-4.85-9.12-6.72-13.95c-1.09-2.79-0.11-5.62,2.72-6.74c2.06-0.81,4.19-1.47,6.34-2.06c2.35-0.63,3.89,0.42,3.94,2.82
		C510.06,568.75,508.66,574.98,505.17,580.65z M486.01,598.64c1.81,1.1,3.61,2.28,5.34,4.08c-1.39,0.49-2.37,1.05-3.41,1.17
		c-5.29,0.63-10.58,1.26-15.93,0.97c-3.5-0.2-6.58-4.54-5.02-7.41c1.12-2.07,2.7-3.86,4.92-5.02c1.73-0.9,2.2,0.91,3.33,1.29
		C479,594.98,482.64,596.59,486.01,598.64z M463.5,604.58c-0.9,0.76-2.05,1.09-3.43,0.8c1.03-1.45,2.98-1.59,3.36-3.54
		C463.92,602.9,464.33,603.87,463.5,604.58z M388.57,530.63c-8.6-0.72-16.92,0.77-25.21,2.77c-4.83,1.18-9.06,3.65-13.33,6.03
		c-5.87,3.26-11.4,6.97-16.22,12.13c-0.3-1.46,0.42-2.4,0.96-3.4c2.46-4.64,5.74-8.54,9.81-11.92c3.16-2.61,6.48-4.86,10.21-6.37
		c5.05-2.06,10.28-3.68,15.58-5.03c4.54-1.13,9-2.64,13.74-2.94c2.58-0.15,5.19,0.09,7.74-0.13c3.45-0.3,6.74,0.47,10.1,0.68
		c1.26,0.08,1.6,0.69,0.64,1.82c-1.68,1.96-3.4,3.93-4.83,6.07c-0.96,1.41-1.95,1.73-3.46,1.31
		C392.43,531.13,390.53,530.8,388.57,530.63z M392.58,536.99c-4.27,5.86-8.72,11.58-12.52,17.72c-6.82,11.05-14.08,21.8-21.42,32.49
		c-1.65,2.41-3.19,4.98-5.88,6.64c-3.44,2.12-5.27,2.35-8.48-0.08c-4.02-3.03-6.64-7.24-9.27-11.42c-1.96-3.1-3.29-6.49-3.55-10.04
		c-0.71-9.38,3.15-16.92,9.98-23.18c2.64-2.43,5.94-3.72,8.9-5.61c9.8-6.3,20.73-8.76,32.2-9.33c1.08-0.06,2.16-0.18,3.24-0.14
		c2.21,0.07,4.42,0.19,6.51,1.17C393.44,535.74,393.27,536.04,392.58,536.99z M390.64,472.42c-7.74-1.49-15.48-3.11-23.34-3.6
		c-7-0.43-13.99-0.96-21.07-0.67c-7.71,0.32-15.25,1.32-22.8,2.64c-3.36,0.6-6.77,0.89-10.15,2.01c0.11-1.58,0.81-2.56,1.58-3.48
		c5.55-6.6,11.07-13.25,18.04-18.45c6.15-4.6,12.58-8.71,20.28-10.29c3.59-0.74,7.29-0.77,10.91-0.82
		c4.16-0.07,8.22,1.06,12.33,1.65c2.47,0.34,4.89,0.7,7.3,1.61c3.63,1.38,6.69,3.51,9.85,5.61c4.23,2.81,8.63,5.22,11.97,9.3
		c4.07,4.95,8.13,9.82,10.77,15.73c0.84,1.89,1.58,3.84,2.42,5.74c0.23,0.55,0.53,1.16,0.21,1.63c-0.5,0.73-1.01-0.11-1.5-0.21
		c-3.34-0.67-6.21-2.56-9.44-3.58C402.26,475.44,396.57,473.55,390.64,472.42z M391.26,377.18c5.59,3.27,11.59,5.77,17.2,9
		c6.79,3.92,14.06,6.93,20.72,11.13c6.64,4.17,13.55,7.93,20.42,11.75c3.05,1.72,4.9,4.15,5.45,7.6c0.33,2.13,0.6,4.27,0.98,6.4
		c0.76,4.1,1.24,8.3,3.78,11.83c1.52,2.1,2.82,4.35,4.31,6.47c3.15,4.41,7.06,8.08,11.74,11.3c-2.08,1.95-4.24,3.94-6.34,5.98
		c-1.11,1.08-1.53,0.5-1.81-0.63c-0.23-0.94-0.01-2.08-1.36-2.43c-2.17-0.57-3.55-2.19-4.65-3.98c-1.5-2.43-2.79-4.95-4.35-7.37
		c-2.69-4.2-3.37-9.18-4.44-13.96c-0.77-3.43-1.29-6.91-4.14-9.43c-0.75-0.65-1.61-1.27-2.15-2.09c-2.65-3.96-7.04-5.58-10.74-8.13
		c-0.55-0.39-1.51-0.57-1.73,0.11c-0.74,2.32-1.8,0.62-2.37,0.13c-2.46-2.16-4.67-4.6-7.89-5.68c-0.26-0.09-0.49-0.3-0.67-0.53
		c-2.62-3.15-6.12-5.17-9.45-7.38c-5.33-3.54-10.63-7.11-16.11-10.41c-3.48-2.09-7.36-3.54-10.49-6.22
		c-0.81-0.69-2.26-1.13-0.68-2.6c0.76-0.68-0.14-1.41-0.64-1.98c-0.51-0.57-1.45-0.75-1.66-2.02
		C386.7,375.14,389.11,375.92,391.26,377.18z M341.52,246.59c-0.15-2.78,1.94-4.62,2.9-6.93
		C344.06,242.22,342.66,244.34,341.52,246.59z M335.5,214.68c0.09-0.42,0.22-0.84,0.4-1.23c1.89-3.91,4.18-7.59,6.89-10.95
		c2.08-2.57,4.69-4.08,8.35-2.83c2.25,0.76,3.98,2.28,6.03,3.24c3.94,1.82,5.86,7.37,2.81,11.34c-3.43,4.46-6.83,8.93-9.48,13.93
		c-1.23,2.33-2.23,4.81-4.55,7.14c0.44-3.13,1.06-5.74,2.08-8.14c1.3-3.03,0.99-6.22,1.46-9.32c0.12-0.73-0.11-1.46-0.61-2.03
		c-1.61-1.84-3.4-3.48-5.62-4.61c-0.47-0.25-1.01-0.62-1.36-0.13c-1.37,1.91-4.65,1.29-5.34,4.08c-0.05,0.18-0.47,0.41-0.67,0.37
		C335.43,215.49,335.42,215.05,335.5,214.68z M334.3,287.82c1.32-0.23,3.49-0.9,3.17-2.36c-0.62-2.86-0.13-5.75-0.77-8.59
		c-1.04-4.55-1.92-9.12-2.89-13.69c-0.14-0.73-0.29-1.46,0.14-2.1c1.91-2.9,2.74-6.29,4.37-9.61c0.97,1.1,1.13,2.01,0.78,3.18
		c-0.82,2.76-1.12,5.5,0.76,8.05c0.33,0.43,0.42,1.06,0.55,1.61c1.29,5.25,2.19,10.62,3.91,15.69c2.35,6.91,3.87,14.03,5.94,20.99
		c2.41,8.07,4.28,16.29,6.89,24.31c2.29,7.05,4.69,14.06,7.33,20.99c1.38,3.59,2.63,7.24,4,11.02c-1.03-0.23-1.15-0.97-1.52-1.47
		c-0.88-1.12-2.06-1.79-3.39-1.38c-1.4,0.42-2.48,0.06-3.67-0.54c-1.09-0.53-2.29-1.05-3.47-1.11c-0.78-0.05-0.9-0.23-1.09-0.84
		c-1.58-5.16-2.92-10.41-4.84-15.45c-3.58-9.34-6.56-18.92-10.74-28.04c-2.67-5.82-4.37-12.04-6.68-18.04
		C332.48,288.83,332.33,288.17,334.3,287.82z M446.03,449.51l-21.6,28.31c0,0-12.96-35.51-54.22-42.24
		c-7.59-1.24-14.92-0.64-21.83,1.16c-0.14,0.3-0.69,0.39-1.08,0.58c-6.13,3.37-12.14,6.96-17.63,11.3
		c-4.57,3.61-9.26,7.14-12.65,11.97c-1.34,1.91-2.64,3.87-4.39,5.32c-2.92,2.44-4.74,5.57-6.57,8.76c-1.66,2.88-3.81,5.39-6.12,8.21
		c-0.16-0.7-0.28-0.97-0.29-1.24c-0.11-3.44-0.22-6.88-0.37-10.3c-0.19-4.99-0.43-9.99-0.74-14.97c-0.49-8.27-0.42-16.58-0.15-24.88
		c0.09-2.81,0.2-5.64-0.06-8.43c-0.99-11.07-0.36-22.17-0.51-33.26c-0.02-2.36,0.35-4.74,0.18-7.12c-0.09-1.39-0.13-2.78-0.09-4.16
		c0.02-1.64,0.15-3.26,0.36-4.9c0.5-3.78,1.29-7.53,1.78-11.3c0.92-6.97,1.12-14.03,2.22-21.01c1.18-7.52,1.24-15.26,5.48-22.02
		c1.29-2.06,1.05-4.62,2.05-6.81c0.28-0.61,0.62-1.34,1.3-1.26c0.78,0.09,0.68,0.98,0.75,1.59c0.02,0.13,0.04,0.25,0.04,0.37
		c3.73-13.97,6.5-22.55,6.5-22.55C357.72,412.54,446.03,449.51,446.03,449.51z M297.08,255.36c5.25-2.53,10.58-4.82,16.38-5.8
		c2.57-0.43,5.38-0.55,7.11-3.15c-0.03,2.09-1.04,3.8-1.52,5.64c-0.65,2.53-2.83,2.56-4.49,3.45c-3.79,2.03-7.92,3.31-11.6,5.62
		c-2.2,1.38-6.71-1.77-7.05-4.48C295.79,255.68,296.57,255.59,297.08,255.36z M287.19,548.99c25.69-45.19,70.2-25.46,70.2-25.46
		l-10.66,6.81c-0.78,0.62-1.61,1.19-2.53,1.61c-0.25,0.13-0.5,0.23-0.77,0.33c-0.39,0.14-0.69,0.51-1.01,0.81
		c-6.28,5.69-10.71,12.72-13.45,20.6c-4.33,12.42-1.74,24.01,5.33,34.82c1.52,2.32,3.61,4.16,5.54,6.64
		c-4.62-0.6-8.63-1.7-12.56-3.13c-0.57-0.22-1.34-0.65-1.75,0.05c-0.4,0.68,0.29,1.19,0.77,1.59c2.25,1.84,4.57,3.51,7.38,4.43
		c5.22,1.71,10.52,1.92,16.34,1.38c-2.97,1.58-4,4.68-6.34,6.71c-0.7,0.6-2.09,0.19-2.18,1.11c-0.27,2.51-2.41,3.66-3.64,5.45
		c-3.86,5.62-7.26,11.52-9.74,17.87c-0.36,0.92-0.73,1.85-1.1,2.77v0.01l-2.91,13.78l-1.84,8.49l-13.53-8.71
		C257.38,597.86,287.19,548.99,287.19,548.99z M327.5,693.67c-2.77-1.16-5.45-2.56-8.17-3.86c-7.82-3.73-15.35-7.98-21.96-13.62
		c-3.38-2.9-7.04-5.48-9.79-9.17c0.25,0.09,0.53,0.14,0.76,0.27c8.79,5.17,18.24,8.74,28.04,11.48c1.65,0.47,3.25,1.18,4.96,1.39
		c2.12,0.27,3.86,1.5,5.91,1.91c0.87,0.18,1.38,0.92,1.61,1.87c0.56,2.37,1.29,4.72,1.82,7.11
		C331.23,693.57,329.95,694.68,327.5,693.67z M356.92,806.91c-0.94,2.65-2,5.25-3.45,7.68c-0.8,1.33-1.61,1.23-2.55,0.22
		c-0.39-0.42-0.76-0.87-1.04-1.37c-3.27-5.61-5.25-11.8-7.46-17.87c-0.12-0.33-0.16-0.74-0.07-1.06c1.18-4.44,2.61-8.83,4.35-13.09
		c0.92-2.23,1.49-2.26,3.57-0.84c3.91,2.65,6.5,6.45,8.81,10.47c0.57,0.98,1.04,2.07,0.9,3.3
		C359.53,798.67,358.34,802.82,356.92,806.91z M392.31,807.06c-0.08,0.9,0.02,1.91-0.6,2.3c-0.62,0.4-1.27-0.43-1.87-0.8
		c-5.33-3.25-9.47-7.89-13.99-12.11c-0.63-0.6-0.99-1.49-1.16-2.49c-0.84-5.04,0.64-9.4,3.82-13.18c3.01-3.58,5.18-3.02,7.54,1.04
		C390.63,789.7,391.32,798.45,392.31,807.06z M414.7,713.02c-2.3,4.57-6.17,6.57-10.59,8.12c-0.85,0.29-1.66,0.57-2.04-0.71
		c-0.28-0.91-0.92-0.95-1.68-0.37c-4.42,3.25-9,6.21-14.04,8.49c-2.21,1.01-4.28,1.6-6.63,1.44c-0.77-0.06-1.58-0.25-2.26,0.39
		c-2.57,2.46-5.87,2.76-9.17,3.22c-1.37,0.2-1.77-0.14-2.25-1.3c-1.32-3.12-3.22-5.99-4.19-9.27c-0.16-0.56-0.5-1.11-1.23-0.96
		c-0.75,0.15-0.75,0.78-0.72,1.38c0.05,1.95,0.18,3.86,0.89,5.74c0.73,1.93,1.74,3.72,2.56,5.74c-0.83-1.49-2.27-1.7-3.63-2.1
		c-0.75-0.22-1.46-0.65-2.09-1.11c-4.02-2.89-7.74-6.03-10.91-9.93c-2.26-2.77-3.55-5.81-4.55-9.05c-3.02-2.83-5.95-7.78-8.69-15.44
		c-19.45-54.35,6.12-75.24,6.12-75.24l24.84-28.8c0,0,28.43-29.87,36.36-33.83c5.32-2.65,14.51,6.83,19.98,13.37
		c4.68,1.92,9.26,4.02,13.74,6.44c2.9,1.56,5.32,4.03,8.68,4.71c1.98,0.41,1.81,1.43,1.12,2.81c-0.92,1.87-1.84,3.75-2.72,5.65
		c-5.88,12.63-11.4,25.4-15.42,38.76c-0.9,2.97-2.07,5.87-2.71,9.18c-2.14-2.26-3.6-4.42-4.37-7.06c-0.58-2.01-1.29-4-2.15-5.89
		c-0.87-1.87-1.66-3.88-3.51-5.09c-0.76-0.5-1.63-0.82-2.42-0.2c-0.77,0.61-0.13,1.36,0.08,1.98c0.39,1.16,0.87,2.29,1.37,3.41
		c1.45,3.27,1.41,7.13,3.6,10.12c2.57,3.51,4.1,7.3,4.82,11.61c1.46,8.95,4.33,17.6,4.91,26.74c0.34,5.2-0.12,10.24-1.34,15.19
		C422.49,698.97,418.29,705.86,414.7,713.02z M557.2,682.79c-6.05,7.05-11.88,14.41-20.24,19.14c-4.5,2.56-9,5.15-13.59,7.54
		c-4.15,2.18-8.6,3.7-12.95,5.44c-8.86,3.54-18.02,5.94-27.35,7.76c-1.4,0.28-2.87,0.3-4.27,0.55c-3.34,0.58-6.65,1.71-10,1.77
		c-9.66,0.2-19.34,0.12-28.99-0.15c-7.81-0.22-15.37-2.27-22.99-3.74c-1.73-0.33-1.73-1.03-0.71-2.28c2.37-2.91,4.36-6.07,6.05-9.45
		c4.99-9.93,8.52-20.35,7.89-31.5c-0.53-9.25-2.35-18.42-3.67-27.62c-0.47-3.23-0.77-6.36,0.3-9.6c0.91-2.74,1.81-5.46,2.75-8.2
		c3.79-11.12,7.47-22.29,12.27-33.03c0.41-0.94,0.92-1.73,1.74-2.42c1.08-0.91,1.45-0.4,1.72,0.6c1.13,4.07,3.68,7,6.98,9.55
		c2.03,1.57,4.05,2.05,6.56,2.13c5.4,0.16,10.56-2.82,16.06-1.09c0.25,0.08,0.55-0.08,0.85-0.12c6.36-0.62,12.73-1.24,19.1-1.85
		c0.67-0.07,1.37-0.06,1.66-0.76c0.32-0.76,0.35-1.58-0.19-2.26c-1.46-1.87-3.19-3.43-5.12-4.84c-2.19-1.6-4.43-3.11-7.37-4.5
		c2.27-0.76,4.05-0.8,5.59-1.67c1.33-0.78,2.49-0.56,3.74,0.42c2.9,2.26,6.17,3.78,9.9,3.94c1.46,0.06,1.53,0.71,1.04,1.8
		c-0.63,1.4-1.82,2.4-2.71,3.61c-0.61,0.83-1.24,1.7-0.74,2.78c0.5,1.1,1.56,1.12,2.6,1.16c4.82,0.19,9.55-0.48,13.93-2.44
		c7.37-3.32,9.6-6.99,7.36-14.49c-1.15-3.8-2.98-7.6-4.9-11.23c-1.42-2.65-3.63-4.32-6.46-5.04c-1.27-0.34-1.19-0.85-0.95-1.82
		c0.77-3.09,0.96-6.23,0.9-9.43c-0.04-1.45-1.05-2.7-0.77-4.2c0.9-4.77-1.27-9.51-5.59-11.97c-1.63-0.94-3.46-1.53-4.98-2.58
		c-4.36-3.03-9-3.26-13.81-1.63c-4.26,1.44-8.55,3.18-11.16,6.99c-2.13,3.12-3.64,6.71-5.06,10.23c-0.61,1.54-1.43,2.02-2.81,1.99
		c-1.44-0.02-2.88-0.14-4.33-0.26c-1.45-0.11-1.89-0.95-1.36-2.22c0.32-0.72,0.81-1.37,1.29-2c3.48-4.61,7.1-9.11,10.9-13.45
		c5.32-6.07,11.65-10.98,18.56-15.07c6.36-3.77,13.31-6.15,20.7-6.91c5.32-0.56,10.55-0.14,15.83,0.88c2.94,0.57,5.59,1.73,8.44,2.4
		c6.38,1.51,11.65,5,15.97,9.75c4.36,4.77,8.48,9.81,11.27,15.74c1.78,3.78,4.08,7.46,5.04,11.45c2.07,8.61,3.59,17.35,5.01,26.09
		c1.87,11.54,2.44,23.19,2.27,34.88c-0.11,6.68-0.81,13.21-2,19.77C573.6,656.84,567.46,670.84,557.2,682.79z M619.9,790.02
		c-1.03,0-1.78-0.4-2.54-0.83c-2.74-1.58-5.37-3.36-8.26-4.68c-2.88-1.32-5.68-2.77-8.5-4.2c-3.13-1.58-3.7-2.77-3.06-6.22
		c0.4-2.21,1.16-4.32,2.14-6.33c2.26-4.53,5.36-4.65,8.61-0.78c4.9,5.85,7.47,12.95,10.96,19.55
		C619.77,787.52,620.07,788.66,619.9,790.02z M646.81,757.9c4.5,3.08,9.04,6.19,12.44,10.59c0.61,0.78,1.82,1.56,1.37,2.5
		c-0.51,1.05-1.93,0.55-3.57,0.68c-2.97-0.54-6.5-1.41-10.06-1.75c-3.5-0.34-6-1.72-8.14-4.55c-2.1-2.77-2.36-2.65-0.43-5.64
		C641.19,755.49,642.56,755,646.81,757.9z M631.52,748.07c1.79,1.22,3.61,2.37,5.33,3.67c0.78,0.61,1.65,1.53,0.44,2.5
		c-1.43,1.15-1.94,2.83-2.7,4.34c-0.48,0.91-0.69,1.24-1.68,0.63c-2.54-1.6-5.26-2.61-8.68-1.94c2.09-3.19,3.98-6.06,5.85-8.93
		C630.49,747.72,630.95,747.66,631.52,748.07z M629.67,746.12c-2.56,4.97-6.79,8.26-8.14,13.28
		C620.5,756.48,625.7,748,629.67,746.12z M624.28,763.87c2.01-3.15,4.2-3.75,7.03-1.33c7.16,6.1,12.51,13.49,15.75,22.84
		c-5.04-1.25-9.9-2.16-14.68-3.51c-4.03-1.12-8.02-2.25-11.59-4.57c-0.85-0.56-1.08-0.98-0.9-2.01
		C620.58,771.17,622.02,767.42,624.28,763.87z M625.58,639.31c4.46,8.27,7.29,17.04,8.71,26.32c0.99,6.47,1.79,12.97,4.09,19.19
		c0.85,2.3,0.92,4.88,1.4,7.64c-1.53-0.58-2.85-1.11-3.92,0c-1.57,1.61-3.61,2.29-5.53,3.24c-1.11,0.55-2.61,0.02-3.25,0.68
		c-2.89,2.86-6.1,1.36-9.11,0.84c-2.81-0.48-5.52-1.56-8.16-2.74c-4.41-1.96-9.12-3.48-12.78-6.67c-4.24-3.67-9.27-6.19-13.52-9.8
		c-0.88-0.75-1.88-1.33-2.79-2.03c-0.53-0.4-1.12-0.97-1.73-0.56c-1.33,0.92-2.21,0.06-3.04-0.68c-1.08-0.94-1.93-2.15-3.04-3.05
		c-1.31-1.05-1.41-2.06-0.75-3.55c3.99-9,7-18.34,8.44-28.07c1.23-8.26,2.32-16.51,2.25-24.94c-0.06-8.27-0.73-16.42-1.77-24.58
		c-0.29-2.32-1.04-4.6-0.7-7.11c1.31,1.87,3.34,2.82,4.84,4.34c4.74,4.84,9.55,9.6,14.13,14.61
		C609.6,613.6,618.36,625.91,625.58,639.31z M696.41,627.45c-9.11-0.65-18.27-1.09-27.32-2.29c-9.76-1.3-19.4-3.4-28.92-6.03
		c-9.67-2.68-19.03-6.26-28.43-9.72c-1.43-0.53-2.54-1.26-3.52-2.34c-4.05-4.41-8.13-8.79-12.16-13.21
		c-1.63-1.78-3.17-3.6-4.75-5.41c0.08-0.09,0.16-0.19,0.25-0.28c0.25,0.09,0.54,0.13,0.75,0.28c7.48,5.29,16.38,7.72,24.41,11.94
		c4.23,2.22,8.84,3.84,13.2,5.85c5.82,2.67,11.69,5.22,17.75,7.27c11.88,4.02,24.22,6.43,36.27,9.85c1.59,0.44,3.16,1.16,4.85,0.97
		c3.31-0.39,6.43,0.69,9.59,1.24c2.08,0.37,4.34,0.37,6.3,1.61C701.92,627.48,699.16,627.64,696.41,627.45z M720.87,624.77h4.77
		C724.08,625.17,722.52,625.67,720.87,624.77z M730.74,612.6c-2.76,1.04-5.44,2.21-8.42,2.65c-3.8,0.56-7.62,0.56-11.41,0.55
		c-2.46-0.01-4.98-0.65-7.29-1.52c-1.11-0.4-2.05-0.97-3.22-0.68c-1.26,0.33-2.46,0.06-3.58-0.46c-1.1-0.5-2.2-0.62-3.38-0.55
		c-2.33,0.14-4.57-0.42-6.82-0.91c-6.01-1.31-11.72-3.67-17.72-5.09c-2.01-0.48-4.22-0.53-6.05-1.49c-3.85-2.02-8.2-2.41-12.23-3.94
		c-5.57-2.1-11.24-3.89-16.6-6.55c-2.26-1.11-4.57-2.49-7.3-2.46c-0.5,0.01-1.47,0.16-1.33-0.61c0.12-0.67,0.19-1.64,1.43-1.82
		c2.69-0.4,5.33-1.27,8.05-1.51c2.82-0.23,5.67-1.2,8.52-0.18c10.83,3.91,21.58,8.06,32.5,11.69c6.22,2.08,12.41,4.17,18.86,5.47
		c10.06,2.02,20.18,3.3,30.43,3.43c1.81,0,3.61,0.08,5.41-0.04c1.12-0.08,1.52,0.21,1.58,1.36
		C732.24,611.21,731.87,612.17,730.74,612.6z M777.25,449.3c-0.57,0.41-0.68,1.04-0.81,1.7c-0.21,0.98-0.51,1.93-0.78,2.9
		c-0.42-2.84,0.68-5.16,2.16-7.37c0.96-1.4,1.95-2.81,2.15-4.57c0.14,0.4,0.5,0.94,0.36,1.17
		C779.15,445.11,779.4,447.8,777.25,449.3z M841.43,583.59c-2.48,5.82-6.43,10.41-12.47,12.84c-0.65,0.26-1.38,0.87-2.36,0.07
		c3.51-1.34,4.46-3.86,3.51-7.25c-0.13-0.48,0.02-1.02-0.06-1.51c-0.43-3.04-0.88-6.08-2.21-9.06c-0.94,1.06-0.16,2.26-0.69,3.06
		c-0.99,1.44-1.54-0.73-2.55-0.4c0.46,2.95,1.16,5.93-0.03,8.9c-0.15,0.37,0.01,0.94-0.48,1.11c-0.64,0.23-0.89-0.36-1.15-0.76
		c-1.01-1.6-3.01-2.25-3.88-3.99c-0.23-0.44-0.68-0.53-1.1-0.18c-2.09,1.78-4.54,3.23-5.74,5.91c-0.95,2.1-2.17,4.06-3.04,6.22
		c-1.04,2.61-2.09,5.19-5.48,5.75c-3.03,0.5-5.87-0.07-8.76-0.8c-1.48-0.36-2.65-0.76-2.27-2.84c0.21-1.1,0.3-2.26,0.53-3.39
		c0.08-0.41,0.28-1.31-0.44-1.12c-2.15,0.55-1.03-0.96-0.96-1.52c0.48-3.51-0.66-6.64-2.75-9.24c-0.96-1.19-1.93-2.2-2.21-3.72
		c-0.16,0.35-0.33,0.71-0.5,1.08c-0.12-0.18-0.23-0.34-0.37-0.5c0.11,0.16,0.2,0.32,0.3,0.46c-0.22-0.15-0.44-0.3-0.68-0.46h0.37
		v-0.01c0.23-0.44,0.44-0.89,0.67-1.34c-0.36,0.05-0.72,0.08-1.08,0.12c-0.11,0.12-0.2,0.22-0.29,0.34
		c0.05,0.19,0.09,0.39,0.14,0.58c-0.06-0.16-0.13-0.33-0.19-0.5c-0.34,0.42-0.95,0.9-1.26,0.54c-1.2-1.45-1.65-0.2-2.29,0.51
		c-0.23,0.27-0.55,0.74-0.77,0.7c-2.99-0.42-2.33,4.09-5.17,3.82c-0.09,1.89-2.29,3.68-0.25,5.71c0.5,0.51,0.82,1.72,0.22,1.95
		c-2.1,0.83-1.06,1.8-0.09,2.83c-3.57-0.04-5.54-1.5-6.83-4.89c1.88,0.98,2.27,0.77,2.3-1.38c0.05-3.26,0.26-6.47,2.06-9.37
		c0.69-1.1,0.43-2.1-0.99-2.43c-1.38-0.3-2.34-1.11-2.98-2.29c-0.29-0.55-0.68-0.9-1.24-1.11c-1.38-0.49-2.03-1.47-2.07-2.96
		c-0.03-0.9-0.26-1.79-0.4-2.7c-0.96,0.16-0.65,1.6-1.86,1.43c-0.2-0.88-0.39-1.78-0.61-2.67c-0.16-0.62-0.12-1.46-0.85-1.63
		c-0.9-0.19-1.15,0.72-1.52,1.3c-0.63,0.97-1.19,1.99-1.79,2.99c-0.02-0.02-0.05-0.04-0.07-0.07c-0.01,0.08-0.01,0.14-0.01,0.21
		l0.16-0.06c-2.9,1.75,0.55,2.75,0.7,4.67c-1.38-1.67-3.09-1.02-4.43-1.84c-2.44-1.51-4.15-3.77-6.27-5.6
		c-0.65-0.56-1.04-1.45-1.09-2.32c-0.33-5.57-0.33-11.13,2.19-16.28c1.41-2.91,2.28-5.87,2.4-9.11c0.14-3.45,0.27-6.9,1.25-10.26
		c0.3-1.08,0.77-1.95,2.01-1.82c2.11,0.23,3.01-1.01,3.58-2.71c0.56-1.71,1.26-3.44,1.05-5.26c-0.44-3.68,1.57-6.05,4.05-8.31
		c1.84-1.67,4.23-3.2,4.4-5.91c0.15-2.65-0.5-5.32-2.17-7.55c-1.08-1.44-2.14-2.88-3.52-4.08c-1.41-1.27-2.79-2.85-2.01-4.89
		c0.75-1.88,2-3.59,3.18-5.62c0.2,0.87,1.08,1.51,0.28,1.85c-0.99,0.42-1.66,1.11-1.09,1.85c0.56,0.73,1.75,1.38,2.83,0.67
		c0.97-0.64,1.17-0.14,1.52,0.62c0.32,0.64,0.71,1.87,1.66,1.16c1.98-1.47,1.99,0.12,2.36,1.29c0.14,0.41,0.2,0.99,0.64,1.06
		c1.85,0.32,2,1.86,2.41,3.22c0.36,1.23,0.77,1.22,1.73,0.36c1.93-1.73,1.7-4.05,1.91-6.2c0.29-3.02-0.63-6.23,1.7-8.86
		c0.16-0.18,0.13-0.55,0.2-0.82c2.01-8.28,1.23-16.62,0.35-24.92c-0.12-1.11-1.16-2.2-0.79-3.55c0-0.02-0.01-0.05-0.02-0.07
		c0.13-0.27,0.13-0.54,0-0.81c0,0,0.01,0.01,0.02,0.02c-0.01-0.02-0.02-0.04-0.02-0.05c-0.01-0.01-0.02-0.04-0.04-0.05v0.04
		c-0.13-0.15-0.26-0.3-0.39-0.46l-0.05,0.09c0.03-0.3,0.06-0.61,0.09-0.92l0.03-0.12l-0.01,0.19c0.27-0.39,0.54-0.77,0.82-1.17
		l-0.07,0.01c-0.53-0.92-0.49-1.84,0.28-2.55c1.25-1.13,0.99-2.58,0.98-4c0-1.12-0.71-1.19-1.57-0.92c0.56-0.83,0.97-1.86,1.73-2.43
		c2.1-1.59,3.03-3.8,3.69-6.19c0.27-0.98,0.5-1.96,0.75-2.94c0.19-0.83,0.46-1.18,1.26-0.46c1.77,1.57,3.59,3.09,5.41,4.6
		c0.37,0.32,0.51,0.61,0.44,1.11c17.62-7.44,20.17,35.89,21.49,28.3c2.25,2.32,4.71,2.44,6.06,0.41c0.57-0.87,0.27-2.54,1.39-2.6
		c0.88-0.06,1.81,1.04,2.72,1.59c0.37,0.22,0.77,0.4,1.16,0.58c3.19,1.52,5.2,4.7,4.81,8.22c-0.51,4.57-1.15,9.18-4.3,12.91
		c-1.31,1.54-1.27,3.19-0.68,5.05c2.44,7.52,0.06,14.42-3.81,20.57c-2,3.17-2.96,5.89-2.16,9.39c0.05,0.21,0.04,0.43-0.3,0.51
		c-0.21-0.29-0.43-0.6-0.99-1.4c0.25,3.24-1.05,5.85-0.27,8.59c-0.29-0.25-0.69-0.47-0.85,0.01c-0.65,1.95-0.88,3.95-0.99,5.95
		c0.19,0.06,0.36,0.11,0.55,0.16c0.75-1.85,1.51-3.68,2.26-5.53c0.8-0.74,1.18-1.72,1.54-2.71c0.5-1.43,1.22-1.95,2.7-0.98
		c2.49,1.63,5.27,2.81,6.42,6.01c0.55,1.58,1.84,2.69,3.94,2.1c2.15-0.61,2.49-2.16,2.54-3.99c0.02-0.71,0-1.43,0-2.32
		c0.64,1.01,1.12,1.98,1.79,2.78c4.26,5.19,5.5,11.44,6.17,17.84c0.07,0.76-0.27,1.57-0.47,2.33c-0.67,2.53-2.64,4.06-4.37,5.8
		c-1.95,1.95-2.96,4.42-2.63,7.04c0.62,4.86,1.99,9.58,3.87,14.14C841.77,578.67,842.4,581.29,841.43,583.59z M779.52,451.51
		c0.12,0.09,0.23,0.19,0.34,0.29v0.73C779.75,452.19,779.63,451.85,779.52,451.51z"/>
	<path d="M784.02,578.95c0.02-0.03,0.05-0.05,0.07-0.08C784.09,578.87,784.01,578.95,784.02,578.95
		C784.01,578.95,784.01,578.95,784.02,578.95z"/>
	<path d="M759.36,559.36c-0.01-0.05-0.01-0.1-0.02-0.15c-0.28-0.1-0.56-0.2-0.84-0.31L759.36,559.36z"/>
	<path d="M830.04,551.65c0.59-2,1.54-3.97,1.5-6.06c-0.05-2.09-1.61-4.37-3.69-4.2c-2.95,0.23-3.46,4.31-5.24,6.68
		c-1.93,2.56-5.84,3.06-8.71,1.63c-2.87-1.43-4.75-4.37-5.63-7.46c-0.88-3.08-0.88-6.34-0.88-9.55c0-3.94,0-7.88,0.01-11.82
		c0-3.25,0.04-6.66,1.62-9.5c1.6-2.89,4.59-4.79,6.29-7.62c1.46-2.44,1.85-5.36,2.2-8.18c0.82-6.56,1.64-13.12,2.46-19.68
		c-3.96,4.73-7.93,9.46-11.89,14.19c1.51-4.15,1.03-8.81-0.43-12.97c-1.47-4.16-3.86-7.92-6.23-11.64c-3.7-5.8-7.4-11.59-11.1-17.39
		c-3.42,6.87,0.02,14.96,1.1,22.57c1.48,10.52-1.81,21.2-6.67,30.64c-4.86,9.44-11.28,17.99-16.69,27.13
		c-5.54,9.35-10.13,20.02-8.69,30.78c3.25,1.18,6.5,2.37,9.75,3.55c2.11,0.77,4.31,1.59,5.84,3.23c2.3,2.46,3,6.58,6.14,7.77
		c3.99,1.5,8.37-3.15,12.36-1.66c2.73,1.02,3.7,4.34,4.17,7.22c0.47,2.88,1.08,6.18,3.61,7.64c2.55,1.48,5.93,0.25,8.02-1.84
		c2.08-2.09,3.29-4.87,4.91-7.34c4-6.11,10.77-10.34,18.02-11.25C829.37,562.18,828.58,556.6,830.04,551.65z"/>
</g>
</svg>
