<?xml version="1.0" encoding="utf-8"?>
<!-- Generator: Adobe Illustrator 26.3.1, SVG Export Plug-In . SVG Version: 6.00 Build 0)  -->
<svg version="1.1" id="Layer_1" xmlns="http://www.w3.org/2000/svg" xmlns:xlink="http://www.w3.org/1999/xlink" x="0px" y="0px"
	 viewBox="0 0 1000 1000" style="enable-background:new 0 0 1000 1000;" xml:space="preserve">
<style type="text/css">
	.st0{fill:#007B7D;}
</style>
<g>
	<path d="M935.9,449.06c-18.38-4.33-36.79-8.59-55.03-13.47c-6.52-1.74-12.21-1.93-17.68,2.25c-0.34,0.26-0.78,0.39-1.15,0.61
		c-1.03,0.63-1.56,0.39-1.73-0.84c-0.14-1.07-0.54-2.12-0.61-3.19c-0.19-2.87-1.54-4.09-4.49-4.72
		c-21.03-4.45-42.13-8.65-62.94-13.97c-9.49-2.43-17.64-2.33-25.58,3.61c-1.73,1.29-2.73,2.23-2.67,4.55
		c0.25,11.51,0.21,23.02,0.47,34.53c0.06,2.48-0.69,3.06-3.06,3.11c-13.27,0.28-25.37,4.35-36.42,11.64
		c-0.6,0.39-1.13,1.1-2.14,0.64c-3.76-23.71-7.59-47.48-11.21-71.28c-0.49-3.2-1.45-4.21-4.78-4.17c-15.55,0.2-31.1,0.08-46.64,0.1
		c-1.17,0-2.35-0.16-3.49,0.48c-4.37,2.42-8.85,4.64-13.13,7.2c-1.22,0.73-2.3,1-3.61,1c-8.92-0.01-17.86,0.47-26.74-0.13
		c-9.41-0.64-17.81,1.24-25.42,6.75c-0.09,0.06-0.18,0.13-0.28,0.17c-1.73,0.64-2.35,1.89-2.6,3.71c-0.71,5.1-1.66,10.17-2.6,15.76
		c-6.84-6.14-14.05-10.69-22.08-13.9c-7.99-3.19-16.36-4.67-25.17-5.26c0.98-1.38,2.17-1.68,3.19-2.23
		c13.38-7.21,26.73-14.47,40.2-21.52c2.64-1.38,2.8-2.28,1.15-4.7c-10.48-15.44-20.79-31-31.15-46.52c-0.22,0-0.43,0-0.65,0
		c-2.75,1.5-5.42,3.18-8.28,4.45c-4.18,1.85-7.41,4.66-10.38,8.09c-16.99,19.63-34.1,39.16-51.18,58.72
		c-4.8,5.5-4.79,5.48-0.19,10.9c1.89,2.23,5.41,4.79,5.12,6.74c-0.39,2.56-4.85,2.95-7.27,4.72c-2.32,1.7-3.94,1.29-6.11-0.66
		c-14.78-13.3-29.71-26.44-44.61-39.61c-0.89-0.79-1.67-2.27-3.25-1.18c-5.29,3.66-12.4,4.67-16.11,11.57
		c0-3.05-0.18-5.43,0.05-7.76c0.26-2.64-0.45-3.06-2.97-2.24c-15.58,5.08-31.26,9.85-46.8,15.02c-14.48,4.81-29.58,7.99-42.81,16.19
		c-2.06,1.28-2.8,2.44-2.65,4.82c0.68,10.83,1.16,21.68,1.75,32.52c0.39,7.13,0.43,7.13,7.24,5.44c7.04-1.74,6.98-1.73,7.61,5.48
		c0.15,1.76-0.12,2.25-2.01,2.06c-16.18-1.64-31,2.39-44.7,10.96c-0.94,0.59-1.7,1.68-3.22,1.49c0.12-0.9,0.21-1.75,0.36-2.59
		c2.83-16.1,0.04-31.06-9.04-44.78c-9.02-13.63-21.63-22.93-36.63-28.65c-18.45-7.03-37.78-7.65-57.22-5.54
		c-25.81,2.81-49.96,11.09-72.81,23.16c-14.29,7.55-28.6,15.2-39.44,27.76c-1.37,1.59-1.67,2.58-0.51,4.38
		c2.53,3.92,4.82,7.99,7.2,12.01c9.75,16.43,19.54,32.83,29.18,49.31c1.22,2.09,2.25,2.41,4.32,1.36c2.7-1.38,5.69-2.22,8.32-3.7
		c2.91-1.64,4.01-0.9,5.32,2.09c20,45.58,40.16,91.08,60.21,136.64c1,2.27,1.93,2.7,4.27,1.92c14.21-4.71,28.4-9.52,42.76-13.76
		c9.7-2.87,18.66-6.86,26.75-12.95c1.82-1.37,2.16-2.35,1.59-4.44c-2.63-9.62-5.09-19.29-7.6-28.94c-1.2-4.6-2.37-9.21-3.55-13.81
		c1.02,0.65,1.54,1.46,2.07,2.26c13.79,20.55,33.02,29,57.46,25.61c13.3-1.84,24.65-8.05,35.04-16.24c0.86-0.68,1.5-1.89,3.09-1.72
		c0.53,6.07,1.17,12.1,1.54,18.15c0.16,2.62,1.05,3.18,3.61,2.76c9.75-1.59,19.56-2.88,29.32-4.4c12.58-1.95,25.64-2.27,36.58-10.15
		c0.09-0.06,0.19-0.12,0.29-0.15c1.84-0.55,2.33-1.74,2.31-3.66c-0.13-9.88-0.11-19.76-0.12-29.64c0-3.5,0.03-3.52,3.24-1.93
		c29.48,14.58,58.96,29.16,88.44,43.73c3.98,1.97,7.96,5.29,12.02,5.41c4.22,0.12,8-3.92,12.13-5.81c2.06-0.94,2.75-2.21,2.73-4.48
		c-0.11-14.22-0.01-28.45-0.1-42.68c-0.01-2.18,0.35-3.2,2.84-3.58c5.81-0.88,11.37-2.76,16.79-5.07c4.59-1.95,8.92-4.41,13.59-6.93
		c-0.11,0.99-0.15,1.62-0.26,2.24c-1.17,7.06-2.3,14.13-3.54,21.18c-0.43,2.44-0.04,3.56,2.87,3.98c14.4,2.12,28.75,4.55,43.11,6.88
		c9.62,1.56,19.4,4.84,28.07-2.89c1.19-1.06,2.04-0.53,2.73,0.81c1.63,3.19,3.55,6.23,5.03,9.48c1.18,2.6,2.35,3.32,4.93,1.57
		c2.55-1.72,5.39-3.01,8.42-4.65c0.7,5.67,1.48,10.82,1.92,16c0.19,2.25,0.93,3.1,3.19,3.49c18.09,3.1,36.22,5.98,54.19,9.68
		c10,2.06,19.38,3.31,27.82-3.96c0.08-0.07,0.19-0.12,0.29-0.15c1.97-0.62,2.23-1.99,1.91-3.83c-0.78-4.38-1.37-8.79-2.17-13.16
		c-0.24-1.35-0.07-2.06,1.41-2.2c6.73-0.65,13.21-2.31,19.27-5.09c0.7,0.8,0.51,1.47,0.44,2.09c-0.73,6.47-1.36,12.95-2.29,19.4
		c-0.4,2.76-0.1,3.88,3.14,4.28c13.79,1.73,27.53,3.89,41.3,5.79c2.53,0.35,3.8,1.06,3.61,3.99c-0.26,4.11,0.23,8.26,0.04,12.37
		c-0.13,2.86,0.82,4.17,3.63,5.01c11.33,3.4,22.84,6.41,33.77,10.85c9.1,3.7,16.89,3.5,24.78-2.31c1.9-1.4,3.43-2.57,4.2-4.94
		c5.9-18.14,11.93-36.25,17.95-54.35c15.08-45.36,30.14-90.73,45.34-136.06C939.54,450.41,938.75,449.74,935.9,449.06z
		 M510.79,403.29c5.11-6.14,10.16-12.32,15.27-18.46c6.01-7.22,12.16-14.34,18.04-21.67c1.55-1.93,2.15-1.27,3.19,0.16
		c4.78,6.52,9.57,13.03,14.4,19.52c1.05,1.41,1.5,2.33-0.59,3.36c-15.29,7.52-30.52,15.16-45.77,22.75
		c-0.57,0.28-1.17,0.51-1.84,0.8c-1.7-0.82-2.06-2.67-3.12-3.94C509.51,404.78,510.12,404.1,510.79,403.29z M216.06,543.17
		c-2.15,1.39-2.48,2.58-1.84,4.98c6.19,23.3,12.19,46.65,18.37,69.95c0.75,2.84,0.29,3.88-2.74,4.75c-9,2.56-17.89,5.55-26.76,8.55
		c-1.86,0.63-2.43,0.13-3.13-1.45c-13.23-29.69-26.5-59.36-39.78-89.02c-8.27-18.47-16.64-36.9-24.84-55.4
		c-0.83-1.87-1.59-1.48-2.87-0.83c-4.13,2.11-8.3,4.13-12.42,6.27c-1.38,0.72-2.15,0.7-3.05-0.84
		c-7.24-12.38-14.56-24.72-21.95-37.02c-1.19-1.98-0.11-2.6,1.3-3.45c15.68-9.52,32.28-16.99,49.83-22.33
		c14.66-4.46,29.64-6.97,46.27-7.23c10.4,0.55,22.22,0.95,33.17,5.4c16.42,6.67,29.61,17.08,35.21,34.79
		c4.26,13.46,1.4,26.31-4.43,38.61C247.48,517.7,233.39,531.96,216.06,543.17z M349.68,565.31c-9.29,12.28-21.51,20.39-36.68,23.81
		c-3.71,0.84-7.45,1.26-10.7,1.01c-21.37,0.56-39.28-13.64-43.27-34.93c-3.04-16.24,1.97-30.74,11.69-43.62
		c10-13.25,23.17-22,39.73-24.74c22.55-3.73,46.21,7.51,51.23,34.19C364.78,537.49,359.57,552.24,349.68,565.31z M515.32,556.25
		c-0.36,9.53-0.12,19.09-0.12,29.26c-39.4-19.67-78.24-39.06-117.44-58.63c0,7.86,0,15.22,0,22.58c0,12.05-0.01,24.1,0.01,36.15
		c0,1.43,0.19,2.87-1.85,3.13c-8.77,1.11-17.54,2.16-26.28,3.45c-2.06,0.3-2.38-0.39-2.51-2.1c-0.55-7.32-1.17-14.64-1.81-21.96
		c-0.1-1.1,0.52-1.85,0.98-2.68c6.21-11.25,9.65-23.3,9.22-36.15c-0.47-14.21-5.09-26.97-15.12-37.42
		c-1.11-1.15-1.68-2.29-1.81-3.95c-0.73-9.48-1.64-18.94-2.44-28.41c-0.51-6.03-1.12-12.06-1.34-18.11c-0.09-2.61-1-2.84-3.09-2.21
		c-2.78,0.83-5.58,1.6-8.4,2.28c-1.21,0.29-2.29,0.51-2.55-1.54c-0.42-3.26-0.18-6.51-0.39-9.75c-0.14-2.09,1.65-1.81,2.64-2.11
		c11.85-3.59,23.73-7.07,35.6-10.58c2.58-0.76,5.19-1.42,7.72-2.32c2.12-0.76,2.89-0.58,3.02,2.03c0.75,15.36,1.71,30.72,2.61,46.07
		c0.01,0.16,0.23,0.31,0.6,0.79c11.87-16.62,23.67-33.15,35.56-49.81c11.31,10.71,22.49,21.33,33.74,31.87
		c1.4,1.31,0.95,2.04-0.08,3.13c-4.62,4.89-9.15,9.88-13.79,14.75c-10.49,11-21.02,21.97-31.59,32.9c-1.71,1.77-2.34,2.61,0.67,3.76
		c13.58,5.18,27.06,10.62,40.59,15.93c1.67,0.66,2.92,1.6,3.89,3.18c11.4,18.65,28.3,28.84,49.71,31.98
		C513.92,552.15,515.45,552.77,515.32,556.25z M454.06,500.26c-5.48-2.11-10.53-4.04-14.6-5.61c4.31-4.66,8.8-9.53,13.68-14.82
		C452.45,486.88,453.23,493.38,454.06,500.26z M543.5,534.74c-15.22,3.88-30.38,4.19-45.05-2.08c-16.17-6.92-26.45-18.8-29.62-36.47
		c-2.86-15.9,0.41-30.32,10.45-42.85c8.7-10.85,20.3-17.64,33.75-21.11c17.15-4.42,33.78-3.8,49.48,5.38
		c4.9,2.86,9.13,6.5,13.08,10.54c1.4,1.43,1.52,2.28,0.01,3.88c-15.19,16.11-30.27,32.32-45.37,48.5c-0.42,0.45-0.79,0.94-1.5,1.79
		c5.23,0.52,9.81-0.51,14.36-1.74c8-2.16,14.31-6.92,19.73-13c1.22-1.37,2.17-2.1,3.92-0.49c7.74,7.12,15.59,14.11,23.44,21.19
		C577.39,522.18,561.41,530.18,543.5,534.74z M725.86,590.82c-0.47,0.81-1.06,0.35-1.67,0.25c-12.01-1.85-24.01-3.72-36.04-5.43
		c-1.54-0.22-1.94-0.7-2.15-2.08c-0.98-6.58-2.09-13.14-3.1-19.72c-1.48-9.55-2.94-19.1-4.38-28.66
		c-0.97-6.43-1.89-12.86-2.83-19.29c-0.17-0.02-0.35-0.04-0.52-0.06c-4.82,12.37-9.64,24.74-14.7,37.75
		c-7.59-16.29-14.88-31.93-22.17-47.57c-0.23-0.01-0.46-0.03-0.69-0.04c-0.57,3.37-1.16,6.73-1.7,10.1
		c-1.89,11.79-3.77,23.58-5.64,35.37c-0.39,2.45-0.59,4.92-1.03,7.36c-0.25,1.43-0.41,2.57-2.8,2.12
		c-10.77-2.02-21.61-3.69-32.43-5.42c-2.3-0.37-2.86-1.48-2.48-3.67c1.6-9.1,3.1-18.21,4.6-27.32c0.16-0.97,0.84-1.48,1.43-2.09
		c4.6-4.76,9.17-9.56,13.83-14.27c1.09-1.1,1.21-1.8-0.04-2.84c-2.51-2.07-4.73-4.53-7.41-6.33c-2.61-1.76-2.98-3.83-2.5-6.62
		c2.41-13.95,4.74-27.91,7.1-41.87c1.54-9.1,3.09-18.2,4.62-27.31c0.21-1.28,0.88-1.81,2.21-1.81c11.52,0.03,23.05,0.07,34.57-0.02
		c2.13-0.02,1.86,1.66,2.06,2.64c1.48,7.6,2.75,15.23,4.14,22.84c1.5,8.23,3.06,16.46,5.08,24.71c1.36-7.57,2.73-15.14,4.07-22.72
		c1.99-11.3,3.96-22.61,5.94-33.91c0.22-1.24,0.86-1.83,2.21-1.83c7.83,0.05,15.65,0.04,23.48,0.03c1.49,0,2.06,0.69,2.27,2.13
		c2.82,18.94,5.68,37.88,8.53,56.82c0.64,4.25,1.25,8.51,1.96,12.76c0.2,1.2-0.13,1.99-0.9,2.9c-8.28,9.87-13.77,21.16-15.96,33.83
		c-4.05,23.44,6.55,48.41,29.94,59.48C724.31,581.8,726.7,589.37,725.86,590.82z M744.2,573.1c-19.05-1.06-33.65-13.63-37.84-32.23
		c-0.7-3.1-0.6-6.22-0.77-9.39c0.54-17.81,8.56-31.85,21.97-43.15c8.88-7.49,19.14-12.02,30.65-13.28
		c20.58-2.26,41.34,8.76,45.96,31.18c4.07,19.73-3.21,35.94-16.9,49.74C775.43,567.87,761.02,574.03,744.2,573.1z M919.66,462.49
		c-18.09,54.4-36.11,108.82-54.06,163.27c-0.75,2.28-1.44,2.98-3.91,2.19c-7.45-2.36-14.99-4.42-22.49-6.6
		c-1.54-0.45-2.35-1.06-2.41-3.06c-0.59-18.98-0.68-37.98-1.4-56.95c-0.51-13.33,0.39-26.71-1.5-40.44
		c-1.23,6.77-2.43,13.15-3.55,19.55c-2.27,12.91-4.5,25.82-6.74,38.73c-0.83,4.76-1.65,9.52-2.48,14.29
		c-0.37,2.16-1.06,3.68-3.86,3.18c-5.93-1.06-11.9-1.88-17.85-2.8c-2.33-0.36-4.67-0.74-7-1.12c-1.16-0.19-2.62-0.16-2.4-1.9
		c0.84-6.64,1.52-13.29,1.88-19.97c0.06-1.05,0.77-1.7,1.52-2.38c12.18-10.89,20.56-24.2,23.6-40.24
		c3.55-18.77,0.02-36.03-13.79-50.21c-1.66-1.7-2.2-3.09-1.82-5.62c1.07-7.14,1.48-14.37,2.21-21.56c0.15-1.48-0.42-2.11-1.79-2.43
		c-2.5-0.59-4.99-1.24-7.44-1.99c-0.81-0.25-2.11-0.15-1.98-1.63c0.34-3.78-0.14-7.59,0.58-11.37c0.34-1.77,1.22-1.73,2.51-1.47
		c15.91,3.22,31.81,6.47,47.74,9.59c2.41,0.47,2.36,2.25,2.7,3.82c1.67,7.76,3.22,15.54,4.86,23.31
		c3.88,18.36,7.79,36.71,11.69,55.06c0.2,0.02,0.4,0.04,0.6,0.06c1.26-5.16,2.54-10.31,3.79-15.47
		c4.42-18.29,8.85-36.59,13.23-54.89c0.49-2.03,0.99-2.81,3.55-2.2c11.27,2.69,22.62,5.06,33.96,7.41
		C920.15,459.19,920.45,460.1,919.66,462.49z"/>
	<path d="M220.54,468.38c-9.84-4.24-19.56-2.82-29.01,1.73c-1.47,0.71-1.41,1.66-1.02,2.92c1.03,3.4,1.98,6.82,3.03,10.21
		c4.24,13.78,8.56,27.53,12.7,41.34c0.79,2.63,1.67,2.78,3.68,1.22c3.24-2.52,6.73-4.71,9.86-7.34
		c8.48-7.13,14.65-15.57,14.55-28.38C234.64,480.64,230.41,472.63,220.54,468.38z M213.42,507.8c-2.65-9.4-6.24-18.41-8.15-27.94
		c-0.13-0.63-0.53-1.14,0.37-1.56c4.69-2.22,14.36,1.87,15.8,7.09C223.57,493.1,221.62,502.26,213.42,507.8z"/>
	<path d="M542.5,459.28c-5.35-4.86-11.59-7.24-18.37-7.35c-2.02,0.24-3.61-0.02-5.25,0.35c-12.82,2.92-20.83,10.69-22.92,23.68
		c-1.61,9.99,2.05,18.45,9.57,25.19c1.39,1.25,2.59,1.74,4.03-0.46c1.7-2.6,4.06-4.77,6.15-7.12c9.01-10.11,18-20.23,27.05-30.3
		C544.17,461.7,544.06,460.69,542.5,459.28z M508.22,487.95c-3.71-4.52-3.54-12.7,0.53-18.23c3.74-5.09,12.47-9.87,20.88-6.27
		C522.35,471.78,515.3,479.85,508.22,487.95z"/>
	<path d="M324.14,526.32c-10.3,0.74-16.18-5.3-17.58-11.1c-1.73-7.18,2.57-13.3,12.19-16.95c-3.09,0-5.26-0.07-7.43,0.03
		c-1.06,0.05-2.13,0.34-3.15,0.66c-14.39,4.48-21.65,16.3-17.11,30.32c4.36,13.44,17.21,18.56,29.98,16.2
		c11.58-2.14,18.46-9.62,20.44-21.25c0.85-5-0.58-9.63-3.47-14.49C337.03,519.88,331.75,525.77,324.14,526.32z"/>
	<path d="M767.19,513.84c-7.64,1.1-15.62-4.1-17.55-11.25c-1.92-7.14,2.5-13.13,13.05-17.18c-15.91-1.68-27.5,7.23-30.05,19.29
		c-2.1,9.92,4.19,21.6,14.39,26.12c11.77,5.22,26.08,1.67,32.82-8.14c5.39-7.85,5.87-19.53,1-24.37
		C781.71,507.21,774.7,512.75,767.19,513.84z"/>
</g>
</svg>
